<?xml version="1.0" encoding="utf-8"?>
<!-- Generator: Adobe Illustrator 15.0.0, SVG Export Plug-In . SVG Version: 6.00 Build 0)  -->
<!DOCTYPE svg PUBLIC "-//W3C//DTD SVG 1.1//EN" "http://www.w3.org/Graphics/SVG/1.1/DTD/svg11.dtd">
<svg version="1.1" id="Layer_1" xmlns="http://www.w3.org/2000/svg" xmlns:xlink="http://www.w3.org/1999/xlink" x="0px" y="0px"
	 width="16.14px" height="24.91px" viewBox="0 0 16.14 24.91" enable-background="new 0 0 16.14 24.91" xml:space="preserve">
<g>
	<g>
		<path fill="none" stroke="#FFFFFF" stroke-miterlimit="10" d="M15.64,22.756c0,0.91-0.745,1.654-1.654,1.654H2.154
			c-0.91,0-1.654-0.744-1.654-1.654V2.154C0.5,1.244,1.245,0.5,2.154,0.5h11.831c0.91,0,1.654,0.744,1.654,1.654V22.756z"/>
	</g>
	
		<line fill="none" stroke="#FFFFFF" stroke-linecap="round" stroke-linejoin="round" stroke-miterlimit="10" x1="0.5" y1="3.682" x2="15.64" y2="3.682"/>
	
		<line fill="none" stroke="#FFFFFF" stroke-linecap="round" stroke-linejoin="round" stroke-miterlimit="10" x1="6.929" y1="2.091" x2="9.21" y2="2.091"/>
	
		<line fill="none" stroke="#FFFFFF" stroke-linecap="round" stroke-linejoin="round" stroke-miterlimit="10" x1="0.5" y1="19.547" x2="15.64" y2="19.547"/>
	
		<circle fill="none" stroke="#FFFFFF" stroke-linecap="round" stroke-linejoin="round" stroke-miterlimit="10" cx="8.07" cy="22.042" r="0.929"/>
	
		<line fill="none" stroke="#FFFFFF" stroke-linecap="round" stroke-linejoin="round" stroke-miterlimit="10" x1="2.782" y1="11.007" x2="11.486" y2="11.007"/>
	
		<line fill="none" stroke="#FFFFFF" stroke-linecap="round" stroke-linejoin="round" stroke-miterlimit="10" x1="2.782" y1="12.61" x2="13.022" y2="12.61"/>
	
		<line fill="none" stroke="#FFFFFF" stroke-linecap="round" stroke-linejoin="round" stroke-miterlimit="10" x1="2.782" y1="14.101" x2="9.414" y2="14.101"/>
	
		<rect x="2.721" y="5.729" fill="none" stroke="#FFFFFF" stroke-linecap="round" stroke-linejoin="round" stroke-miterlimit="10" width="3.7" height="3.471"/>
	<circle fill="none" stroke="#FFFFFF" stroke-miterlimit="10" cx="3.826" cy="16.844" r="1.144"/>
	<circle fill="none" stroke="#FFFFFF" stroke-miterlimit="10" cx="8.019" cy="16.844" r="1.144"/>
	<circle fill="none" stroke="#FFFFFF" stroke-miterlimit="10" cx="12.212" cy="16.844" r="1.143"/>
</g>
</svg>
