<?xml version="1.0" encoding="utf-8"?>
<!-- Generator: Adobe Illustrator 15.0.0, SVG Export Plug-In . SVG Version: 6.00 Build 0)  -->
<!DOCTYPE svg PUBLIC "-//W3C//DTD SVG 1.1//EN" "http://www.w3.org/Graphics/SVG/1.1/DTD/svg11.dtd">
<svg version="1.1" xmlns="http://www.w3.org/2000/svg" xmlns:xlink="http://www.w3.org/1999/xlink" x="0px" y="0px"
	 width="13.627px" height="16.138px" viewBox="0 0 13.627 16.138" enable-background="new 0 0 13.627 16.138" xml:space="preserve">
<g id="Layer_3">
</g>
<g id="Layer_2">
	<g>
		<path fill-rule="evenodd" clip-rule="evenodd" fill="#FFFFFF" d="M10.205,14.431c-2.166-0.093-4.504-0.014-6.736-0.04
			c-0.055,0.601,0.104,0.972-0.119,1.348c-0.352,0.59-2.018,0.46-2.299,0.039c-0.37-0.554,0-1.324-0.119-1.901
			c-0.074-0.366-0.562-0.707-0.713-1.11c-0.073-0.196-0.141-0.562-0.158-0.792c-0.135-1.727,0-3.51,0-5.39
			c0-1.392-0.264-3.792,0.475-4.874c0.9-1.319,3.094-1.584,4.795-1.664c3.12-0.147,7.35-0.072,8.124,2.298
			c0.245,0.749,0.159,1.63,0.159,2.536c0,1.708,0,3.592,0,5.39c0,1.03,0.04,1.983-0.238,2.615c-0.156,0.354-0.551,0.606-0.635,0.951
			c-0.154,0.646,0.24,1.626-0.237,2.061c-0.403,0.367-1.903,0.307-2.18-0.158C10.127,15.407,10.242,15.044,10.205,14.431z
			 M1.764,3.532c0,1.375,0,2.748,0,4.122c3.382,0,6.764,0,10.145,0c0-1.413,0-2.827,0-4.24c-3.367,0-6.736,0-10.104,0
			C1.758,3.421,1.761,3.477,1.764,3.532z M1.764,11.458c0.012,0.927,0.884,1.398,1.586,1.229c1.446-0.352,1.076-2.821-0.595-2.457
			C2.174,10.356,1.756,10.765,1.764,11.458z M9.373,11.458c0.02,1.671,2.616,1.617,2.535-0.079c-0.035-0.754-0.77-1.315-1.545-1.149
			C9.78,10.354,9.364,10.766,9.373,11.458z"/>
	</g>
</g>
</svg>
