<?xml version="1.0" encoding="utf-8"?>
<!-- Generator: Adobe Illustrator 15.0.0, SVG Export Plug-In . SVG Version: 6.00 Build 0)  -->
<!DOCTYPE svg PUBLIC "-//W3C//DTD SVG 1.1//EN" "http://www.w3.org/Graphics/SVG/1.1/DTD/svg11.dtd">
<svg version="1.1" xmlns="http://www.w3.org/2000/svg" xmlns:xlink="http://www.w3.org/1999/xlink" x="0px" y="0px"
	 width="20.147px" height="20.11px" viewBox="0 0 20.147 20.11" enable-background="new 0 0 20.147 20.11" xml:space="preserve">
<g id="Layer_3">
</g>
<g id="Layer_2">
	<g>
		<defs>
			<rect id="SVGID_1_" x="-26.337" y="-168.093" width="1024" height="126"/>
		</defs>
		<clipPath id="SVGID_2_">
			<use xlink:href="#SVGID_1_"  overflow="visible"/>
		</clipPath>
		<g clip-path="url(#SVGID_2_)">
			<circle fill-rule="evenodd" clip-rule="evenodd" fill="#130E24" cx="225.117" cy="-67.73" r="97.638"/>
			<circle fill-rule="evenodd" clip-rule="evenodd" fill="#130E24" cx="423.117" cy="-35.418" r="62.325"/>
			<circle fill-rule="evenodd" clip-rule="evenodd" fill="#130E24" cx="486.117" cy="-33.63" r="31.113"/>
			<circle fill-rule="evenodd" clip-rule="evenodd" fill="#130E24" cx="918.979" cy="-41.95" r="102.316"/>
			<circle fill-rule="evenodd" clip-rule="evenodd" fill="#130E24" cx="772.979" cy="-13.863" r="68.229"/>
			<circle fill-rule="evenodd" clip-rule="evenodd" fill="#0E0A18" cx="119.979" cy="-41.863" r="68.229"/>
			<circle fill-rule="evenodd" clip-rule="evenodd" fill="#0E0A18" cx="-11.62" cy="-41.863" r="41.828"/>
		</g>
	</g>
	<path fill-rule="evenodd" clip-rule="evenodd" fill="#FFFFFF" d="M15.687,10.089c1.066,1.645,2.426,3,4.282,3.854
		c-0.542,0.563-1.802,0.411-2.677,0.642c-0.072,1.001,0.244,1.612,0.321,2.464c-2.854-0.108-3.923-2.002-5.246-3.641
		c-2.163,1.363-4.046,4.983-6.425,6.209c-3.516,1.813-6.939-1.713-5.674-5.032c0.428-1.121,2.041-2.361,3.319-3.64
		c2.371-2.37,4.613-4.614,6.958-6.959c1.102-1.1,2.334-2.781,3.427-3.427c2.872-1.692,6.747,0.659,6.104,4.283
		C19.637,7.31,16.966,8.031,15.687,10.089z M18.042,4.735c0.522-1.567-0.805-2.726-1.82-2.782c-1.311-0.074-2.012,1.153-2.677,1.818
		c-0.531,0.532-1.233,0.926-1.071,1.285c1.402,0.348,2.362,1.136,2.57,2.677C15.743,6.879,17.628,5.979,18.042,4.735z M9.263,8.055
		c-1.438,1.348-2.828,2.738-4.176,4.176c1.536,0.355,2.307,1.477,2.891,2.783c1.275-1.507,2.882-2.686,4.068-4.283
		C11.677,9.279,10.938,8.199,9.263,8.055z M2.196,15.121c-1.227,3.062,3.481,4.078,3.854,1.285c0.211-1.58-0.82-2.696-2.569-2.249
		C2.857,14.317,2.364,14.7,2.196,15.121z"/>
</g>
</svg>
