<?xml version="1.0" encoding="utf-8"?>
<!-- Generator: Adobe Illustrator 15.0.0, SVG Export Plug-In . SVG Version: 6.00 Build 0)  -->
<!DOCTYPE svg PUBLIC "-//W3C//DTD SVG 1.1//EN" "http://www.w3.org/Graphics/SVG/1.1/DTD/svg11.dtd">
<svg version="1.1" xmlns="http://www.w3.org/2000/svg" xmlns:xlink="http://www.w3.org/1999/xlink" x="0px" y="0px"
	 width="20.465px" height="20.845px" viewBox="0 0 20.465 20.845" enable-background="new 0 0 20.465 20.845" xml:space="preserve">
<g id="Layer_3">
</g>
<g id="Layer_2">
	<g>
		<defs>
			<rect id="SVGID_1_" x="-510.479" y="-167.725" width="1024" height="126"/>
		</defs>
		<clipPath id="SVGID_2_">
			<use xlink:href="#SVGID_1_"  overflow="visible"/>
		</clipPath>
		<g clip-path="url(#SVGID_2_)">
			<circle fill-rule="evenodd" clip-rule="evenodd" fill="#130E24" cx="-259.024" cy="-67.362" r="97.638"/>
			<circle fill-rule="evenodd" clip-rule="evenodd" fill="#130E24" cx="-61.024" cy="-35.05" r="62.325"/>
			<circle fill-rule="evenodd" clip-rule="evenodd" fill="#130E24" cx="1.976" cy="-33.262" r="31.113"/>
			<circle fill-rule="evenodd" clip-rule="evenodd" fill="#130E24" cx="434.837" cy="-41.582" r="102.316"/>
			<circle fill-rule="evenodd" clip-rule="evenodd" fill="#130E24" cx="288.837" cy="-13.495" r="68.229"/>
			<circle fill-rule="evenodd" clip-rule="evenodd" fill="#0E0A18" cx="-364.163" cy="-41.495" r="68.229"/>
			<circle fill-rule="evenodd" clip-rule="evenodd" fill="#0E0A18" cx="-495.761" cy="-41.495" r="41.828"/>
		</g>
	</g>
	<path fill-rule="evenodd" clip-rule="evenodd" fill="#FFFFFF" d="M10.062,0c0.194,0.742-0.417,1.28-0.366,1.956
		c0.168,2.281,4.938,3.331,2.566,6.721c1.547,0,3.096,0,4.643,0c0.258,0.382,0.344,1.209,0.122,1.71
		c6.266,1.138,3.172,10.921-2.932,8.066c-0.759,0.437-1.299,2.021-2.566,2.198c-1.431,0.201-4.873,0.311-6.11,0
		c-1.625-0.405-3.143-3.097-3.911-4.888c-0.967-2.255-1.693-4.668-1.466-6.965c1.796-0.282,4.111-0.044,6.11-0.122
		C5.972,7.562,4.286,7.512,4.196,6.232C4.14,5.411,4.931,4.438,5.663,4.277C4.913,6.715,7.98,6.236,7.618,8.677
		c0.978,0,1.956,0,2.933,0c0.898-2.878-3.449-2.701-2.81-6.11C7.956,1.414,8.928,0.651,10.062,0z M15.072,17.108
		c3.904,1.378,5.078-4.472,1.712-5.01C16.405,13.884,15.425,15.702,15.072,17.108z"/>
</g>
</svg>
