<?xml version="1.0" encoding="utf-8"?>
<!-- Generator: Adobe Illustrator 15.0.0, SVG Export Plug-In . SVG Version: 6.00 Build 0)  -->
<!DOCTYPE svg PUBLIC "-//W3C//DTD SVG 1.1//EN" "http://www.w3.org/Graphics/SVG/1.1/DTD/svg11.dtd">
<svg version="1.1" xmlns="http://www.w3.org/2000/svg" xmlns:xlink="http://www.w3.org/1999/xlink" x="0px" y="0px" width="9.686px"
	 height="18.551px" viewBox="0 0 9.686 18.551" enable-background="new 0 0 9.686 18.551" xml:space="preserve">
<g id="Layer_3">
</g>
<g id="Layer_2">
	<g>
		<path fill-rule="evenodd" clip-rule="evenodd" fill="#FFFFFF" d="M3.89,0c0.179,0.197,1.345,0.45,1.477,0
			c0.479,0.225,0.08,1.325,0.21,1.897C6.505,2.375,7.993,2.292,8.95,2.74c0.004,1.129-0.451,1.798-0.633,2.74
			c-1.33-0.695-4.348-1.118-5.06,0.422c0.384,2.491,4.333,2.08,5.692,4.005c1.777,2.52,0.184,6.319-3.163,6.535
			c0,0.702,0,1.404,0,2.108c-0.632,0-1.265,0-1.897,0c0-0.633,0-1.265,0-1.897c-1.58,0.034-2.787-0.304-3.793-0.843
			c-0.072-1.056,0.492-1.475,0.42-2.53c1.744,0.541,5.726,1.783,5.903-0.633c0.173-2.354-5.575-1.76-6.323-5.27
			c-0.518-2.419,1.092-4.789,3.793-5.06C3.89,1.546,3.89,0.773,3.89,0z"/>
	</g>
</g>
</svg>
