<?xml version="1.0" encoding="utf-8"?>
<!-- Generator: Adobe Illustrator 15.0.0, SVG Export Plug-In . SVG Version: 6.00 Build 0)  -->
<!DOCTYPE svg PUBLIC "-//W3C//DTD SVG 1.1//EN" "http://www.w3.org/Graphics/SVG/1.1/DTD/svg11.dtd">
<svg version="1.1" id="Layer_1" xmlns="http://www.w3.org/2000/svg" xmlns:xlink="http://www.w3.org/1999/xlink" x="0px" y="0px"
	 width="28.218px" height="24.459px" viewBox="0 0 28.218 24.459" enable-background="new 0 0 28.218 24.459" xml:space="preserve">
<g>
	<path fill="none" stroke="#FFFFFF" stroke-width="1.0316" stroke-miterlimit="10" d="M13.237,3.502h5.876
		c0.777,0,1.414,0.637,1.414,1.414v4.376"/>
	<path fill="none" stroke="#FFFFFF" stroke-width="1.0316" stroke-miterlimit="10" d="M20.527,17.909v4.62
		c0,0.777-0.637,1.414-1.414,1.414H9c-0.777,0-1.414-0.637-1.414-1.414V9.701"/>
	
		<line fill="none" stroke="#FFFFFF" stroke-width="1.0316" stroke-linecap="round" stroke-linejoin="round" stroke-miterlimit="10" x1="13.237" y1="6.224" x2="20.527" y2="6.224"/>
	
		<line fill="none" stroke="#FFFFFF" stroke-width="1.0316" stroke-linecap="round" stroke-linejoin="round" stroke-miterlimit="10" x1="13.281" y1="4.861" x2="15.031" y2="4.861"/>
	
		<line fill="none" stroke="#FFFFFF" stroke-width="1.0316" stroke-linecap="round" stroke-linejoin="round" stroke-miterlimit="10" x1="7.586" y1="19.785" x2="20.527" y2="19.785"/>
	
		<circle fill="none" stroke="#FFFFFF" stroke-width="1.0316" stroke-linecap="round" stroke-linejoin="round" stroke-miterlimit="10" cx="14.056" cy="21.919" r="0.794"/>
	
		<line fill="none" stroke="#FFFFFF" stroke-width="1.0316" stroke-linecap="round" stroke-linejoin="round" stroke-miterlimit="10" x1="2.234" y1="3.55" x2="11.56" y2="3.55"/>
	
		<line fill="none" stroke="#FFFFFF" stroke-width="1.0316" stroke-linecap="round" stroke-linejoin="round" stroke-miterlimit="10" x1="2.234" y1="6.362" x2="11.56" y2="6.362"/>
	<g>
		<path fill="none" stroke="#FFFFFF" stroke-width="1.0316" stroke-miterlimit="10" d="M27.702,16.437
			c0,0.777-0.637,1.414-1.414,1.414h-8.619c-0.777,0-1.414-0.637-1.414-1.414v-5.708c0-0.777,0.637-1.414,1.414-1.414h8.619
			c0.777,0,1.414,0.637,1.414,1.414V16.437z"/>
	</g>
	<polygon fill="none" stroke="#FFFFFF" stroke-width="1.0316" stroke-linejoin="round" stroke-miterlimit="10" points="
		20.455,13.605 20.455,11.045 21.809,12.326 23.163,13.605 21.809,14.885 20.455,16.166 	"/>
	<path fill="none" stroke="#FFFFFF" stroke-width="1.0316" stroke-miterlimit="10" d="M11.865,0.516H1.929
		c-0.776,0-1.413,0.637-1.413,1.414v5.708c0,0.777,0.637,1.415,1.413,1.415h4.607c0.035,0.025,0.072,0.054,0.112,0.08l4.467,2.905
		c0.593,0.385,0.925,0.144,0.736-0.538l-0.674-2.447h0.688c0.776,0,1.413-0.638,1.413-1.415V1.93
		C13.278,1.152,12.642,0.516,11.865,0.516z"/>
</g>
</svg>
