<?xml version="1.0" encoding="utf-8"?>
<!-- Generator: Adobe Illustrator 15.0.0, SVG Export Plug-In . SVG Version: 6.00 Build 0)  -->
<!DOCTYPE svg PUBLIC "-//W3C//DTD SVG 1.1//EN" "http://www.w3.org/Graphics/SVG/1.1/DTD/svg11.dtd">
<svg version="1.1" id="Layer_1" xmlns="http://www.w3.org/2000/svg" xmlns:xlink="http://www.w3.org/1999/xlink" x="0px" y="0px"
	 width="25.95px" height="23.087px" viewBox="0 0 25.95 23.087" enable-background="new 0 0 25.95 23.087" xml:space="preserve">
<g>
	<g>
		<polyline fill="none" stroke="#FFFFFF" stroke-linejoin="round" stroke-miterlimit="10" points="18.469,15.614 1.958,15.614 
			1.958,0.5 23.672,0.5 23.672,12.466 		"/>
	</g>
	<path fill="none" stroke="#FFFFFF" stroke-linejoin="round" stroke-miterlimit="10" d="M25.45,19.474
		c0,1.713-1.4,3.113-3.114,3.113h-0.743c-1.713,0-3.115-1.4-3.115-3.113v-4.23c0-1.713,1.402-3.114,3.115-3.114h0.743
		c1.714,0,3.114,1.401,3.114,3.114V19.474z"/>
	
		<line fill="none" stroke="#FFFFFF" stroke-linecap="round" stroke-linejoin="round" stroke-miterlimit="10" x1="21.964" y1="14.385" x2="21.964" y2="16.23"/>
	<path fill="none" stroke="#FFFFFF" stroke-linecap="round" stroke-linejoin="round" stroke-miterlimit="10" d="M6.037,8.917
		c0,0,2.119-1.23,4.375,0.137s3.828,0.615,4.99-0.137c1.161-0.753,2.529-0.821,4.237,0.137"/>
	<path fill="none" stroke="#FFFFFF" stroke-linecap="round" stroke-linejoin="round" stroke-miterlimit="10" d="M10.139,11.446
		c0,0,2.528,1.639,5.126,0.067"/>
	<path fill="none" stroke="#FFFFFF" stroke-linecap="round" stroke-linejoin="round" stroke-miterlimit="10" d="M8.498,8.369
		c0,0,0.205-4.375,4.306-4.375c0,0,4.17,0.068,4.17,4.308"/>
	<path fill="none" stroke="#FFFFFF" stroke-linecap="round" stroke-linejoin="round" stroke-miterlimit="10" d="M18.604,20.332
		H1.797c-0.713,0-1.297-0.569-1.297-1.265s0.584-1.265,1.297-1.265h16.717"/>
	<polygon fill="#E10613" stroke="#FFFFFF" stroke-linejoin="round" stroke-miterlimit="10" points="13.846,18.728 11.785,18.728 
		11.623,17.955 14.008,17.955 	"/>
</g>
</svg>
