<?xml version="1.0" encoding="utf-8"?>
<!-- Generator: Adobe Illustrator 15.0.0, SVG Export Plug-In . SVG Version: 6.00 Build 0)  -->
<!DOCTYPE svg PUBLIC "-//W3C//DTD SVG 1.1//EN" "http://www.w3.org/Graphics/SVG/1.1/DTD/svg11.dtd">
<svg version="1.1" id="Layer_1" xmlns="http://www.w3.org/2000/svg" xmlns:xlink="http://www.w3.org/1999/xlink" x="0px" y="0px"
	 width="163.016px" height="168.586px" viewBox="0 0 163.016 168.586" enable-background="new 0 0 163.016 168.586"
	 xml:space="preserve">
<g>
	<path fill="#FFFFFF" stroke="#525A71" stroke-width="3" stroke-linejoin="round" stroke-miterlimit="10" d="M82.418,1.825
		L5.452,54.913c0,0-3.952,2.718-3.952,6.988c0,5.826,0,98.686,0,98.686s1.181,6.5,7.562,6.5s147.144,0,147.144,0
		s5.294-1.079,5.294-6.905s0-98.595,0-98.595s0.376-5.703-2.688-7.223C155.748,52.844,82.418,1.825,82.418,1.825z"/>
	<polygon fill="#FC4E55" points="147,16.586 16,16.586 16,65.586 81.525,110.928 147,64.946 	"/>
	
		<polyline fill="none" stroke="#FFFFFF" stroke-width="7" stroke-linecap="round" stroke-linejoin="round" stroke-miterlimit="10" points="
		70.562,60.634 78.668,68.74 101.718,45.69 	"/>
	<line fill="none" stroke="#525A71" stroke-width="3" stroke-miterlimit="10" x1="159.835" y1="164.915" x2="3.865" y2="56.698"/>
	<line fill="none" stroke="#525A71" stroke-width="3" stroke-miterlimit="10" x1="82.025" y1="110.928" x2="159.835" y2="56.698"/>
</g>
</svg>
