<?xml version="1.0" encoding="utf-8"?>
<!-- Generator: Adobe Illustrator 15.0.0, SVG Export Plug-In . SVG Version: 6.00 Build 0)  -->
<!DOCTYPE svg PUBLIC "-//W3C//DTD SVG 1.1//EN" "http://www.w3.org/Graphics/SVG/1.1/DTD/svg11.dtd">
<svg version="1.1" xmlns="http://www.w3.org/2000/svg" xmlns:xlink="http://www.w3.org/1999/xlink" x="0px" y="0px"
	 width="19.546px" height="19.535px" viewBox="0 0 19.546 19.535" enable-background="new 0 0 19.546 19.535" xml:space="preserve">
<g id="Layer_3">
</g>
<g id="Layer_2">
	<g>
		<path fill-rule="evenodd" clip-rule="evenodd" fill="#FFFFFF" d="M6.837,0c0.331,0,0.662,0,0.992,0
			c2.084,0.213,3.793,1.129,4.883,2.326c1.102,1.211,2.029,3.047,1.947,5.266c-0.082,2.182-0.998,3.783-2.213,4.961
			c-1.217,1.178-2.861,2.098-5.113,2.098c-2.234,0-3.879-0.908-5.113-2.061c-1.193-1.111-2.121-2.84-2.213-4.998
			C-0.088,5.33,0.868,3.523,1.953,2.326C3.113,1.049,4.694,0.264,6.837,0z M3.326,3.549C2.543,4.408,1.833,5.643,1.839,7.326
			c0.01,3.17,2.438,5.465,5.456,5.494c3.032,0.029,5.522-2.354,5.532-5.457c0.006-1.771-0.766-3.094-1.679-3.969
			C10.192,2.48,8.772,1.729,6.989,1.869C5.292,2.002,4.121,2.676,3.326,3.549z"/>
		<path fill-rule="evenodd" clip-rule="evenodd" fill="#FFFFFF" d="M7.333,3.051c0,0.408,0,0.816,0,1.223
			C5.46,4.436,4.444,5.453,4.28,7.326c-0.406,0-0.813,0-1.221,0C3.282,4.699,4.705,3.273,7.333,3.051z"/>
		<path fill-rule="evenodd" clip-rule="evenodd" fill="#FFFFFF" d="M17.901,19.535c-0.127,0-0.254,0-0.381,0
			c-0.906-0.125-1.378-0.844-1.946-1.412c-0.839-0.84-1.655-1.656-2.442-2.441c-0.418-0.42-0.88-0.762-1.145-1.221
			c1.035-0.646,1.855-1.504,2.52-2.52c1.149,1.137,2.555,2.518,3.777,3.74c0.4,0.4,0.965,0.877,1.145,1.373
			C19.854,18.242,19.069,19.381,17.901,19.535z"/>
	</g>
</g>
</svg>
