<?xml version="1.0" encoding="utf-8"?>
<!-- Generator: Adobe Illustrator 15.0.0, SVG Export Plug-In . SVG Version: 6.00 Build 0)  -->
<!DOCTYPE svg PUBLIC "-//W3C//DTD SVG 1.1//EN" "http://www.w3.org/Graphics/SVG/1.1/DTD/svg11.dtd">
<svg version="1.1" id="Layer_1" xmlns="http://www.w3.org/2000/svg" xmlns:xlink="http://www.w3.org/1999/xlink" x="0px" y="0px"
	 width="177.105px" height="200px" viewBox="0 0 177.105 200" enable-background="new 0 0 177.105 200" xml:space="preserve">
<g>
	<path fill="#FFFFFF" d="M47.666,101.434c0-4.956-3.437-7.914-9.592-7.914c-2.398,0-4.076,0.16-4.956,0.4v15.906
		c1.039,0.24,2.238,0.32,4.077,0.32C43.669,110.147,47.666,106.87,47.666,101.434z"/>
	<path fill="#FFFFFF" d="M85.155,93.601c-2.638,0-4.476,0.24-5.515,0.479v35.25c1.039,0.24,2.797,0.24,4.236,0.24
		c11.111,0.08,18.385-5.995,18.385-18.864C102.261,99.516,95.707,93.601,85.155,93.601z"/>
	<path fill="#FFFFFF" d="M165.219,70.737h-4.229c-1.188-6.709,1.856-15.367,0.074-23.068c-0.404-1.749-2.986-4.197-4.754-6.24
		c-9.512-10.992-16.562-18.527-25.853-29.121c-3.717-4.238-7.291-10.425-10.698-11.589c-2.606-0.891-7.384-0.297-11.589-0.297
		c-19.99,0-40.051,0-59.431,0c-7.952,0-16.175-0.949-24.07,0c-10.293,1.237-8.617,10.054-8.617,21.098c0,16.278,0,34.154,0,49.218
		h-4.167C5.349,70.737,0,76.086,0,82.624v57.301c0,6.538,5.349,11.887,11.886,11.887h4.167v1.051c0,7.195,0,13.483,0,21.396
		c0,6.392-1.525,15.771,0.594,20.801c2.615,6.205,11.983,4.754,21.395,4.754c34.566,0,67.843,0,101.627,0
		c6.014,0,13.114,0.696,16.343-0.594c7.04-2.812,5.052-14.754,5.052-25.259c0-8.2-0.239-15.416,0.298-21.395l-0.003-0.754h3.859
		c6.537,0,11.886-5.349,11.886-11.887V82.624C177.105,76.086,171.756,70.737,165.219,70.737z M25.562,9.93
		c29.418,0,58.836,0,88.255,0c0,10.319,0,21.376,0,32.687c0,3.83-0.334,7.987,1.188,9.509c2.49,2.49,13.063,1.188,17.829,1.188
		c7.039,0,12.806,0,19.018,0c0,5.808,0,11.615,0,17.422H25.265c0-19.972,0-39.943,0-59.916C25.24,10.4,25.216,9.98,25.562,9.93z
		 M115.129,110.307c0,10.311-3.757,17.425-8.872,21.821c-5.676,4.716-14.388,6.954-24.939,6.954c-6.314,0-10.871-0.399-13.828-0.799
		V85.447c4.476-0.719,10.311-1.199,16.386-1.199c10.311,0,17.026,1.918,22.142,5.755C111.613,94.16,115.129,100.794,115.129,110.307
		z M21.048,85.367c3.757-0.639,9.033-1.119,16.467-1.119c7.514,0,12.869,1.439,16.466,4.317c3.517,2.717,5.755,7.194,5.755,12.469
		c0,5.276-1.679,9.832-4.956,12.79c-4.157,3.837-10.312,5.675-17.506,5.675c-1.599,0-3.038-0.079-4.156-0.319v19.344h-12.07V85.367z
		 M151.853,152.862c0,11.887,0,23.772,0,35.659c-42.195,0-84.392,0-126.588,0c0-11.688,0-23.377,0-35.064
		c-0.013-0.509,0.221-0.77,0.595-0.892l-0.006-0.754h125.999V152.862z M156.057,94.64h-20.703v12.31h19.344v9.911h-19.344v21.662
		h-12.15V84.648h32.854V94.64z"/>
</g>
</svg>
