<?xml version="1.0" encoding="utf-8"?>
<!-- Generator: Adobe Illustrator 15.0.0, SVG Export Plug-In . SVG Version: 6.00 Build 0)  -->
<!DOCTYPE svg PUBLIC "-//W3C//DTD SVG 1.1//EN" "http://www.w3.org/Graphics/SVG/1.1/DTD/svg11.dtd">
<svg version="1.1" xmlns="http://www.w3.org/2000/svg" xmlns:xlink="http://www.w3.org/1999/xlink" x="0px" y="0px" width="16px"
	 height="16px" viewBox="0 0 16 16" enable-background="new 0 0 16 16" xml:space="preserve">
<g id="Layer_3">
</g>
<g id="Layer_2">
	<path fill="#FFFFFF" d="M15,0H1C0.447,0,0,0.447,0,1v7c0,0.553,0.447,1,1,1h6v7h2V9h6c0.553,0,1-0.447,1-1V1
		C16,0.447,15.553,0,15,0z M2.139,7.19c-0.062,0-0.119-0.015-0.174-0.043C1.878,7.104,1.812,7.025,1.782,6.931
		C1.751,6.835,1.76,6.732,1.806,6.643l2.476-4.791c0.092-0.177,0.327-0.253,0.505-0.16C4.875,1.736,4.94,1.814,4.971,1.909
		c0.031,0.096,0.022,0.198-0.023,0.288L2.472,6.988C2.407,7.112,2.28,7.19,2.139,7.19z M5.056,6.988
		C4.991,7.112,4.864,7.19,4.723,7.19c-0.062,0-0.119-0.015-0.174-0.043C4.462,7.104,4.396,7.025,4.366,6.931
		C4.335,6.835,4.344,6.732,4.39,6.643l2.476-4.791c0.092-0.177,0.327-0.254,0.506-0.16c0.088,0.045,0.153,0.123,0.184,0.218
		c0.031,0.096,0.022,0.198-0.023,0.288L5.056,6.988z M8.213,6.988C8.148,7.112,8.021,7.19,7.88,7.19
		c-0.062,0-0.119-0.015-0.174-0.043C7.524,7.053,7.452,6.826,7.547,6.643l2.477-4.791c0.091-0.177,0.327-0.254,0.506-0.16
		c0.183,0.096,0.255,0.322,0.16,0.506L8.213,6.988z M13.561,2.197l-2.476,4.791c-0.064,0.124-0.191,0.202-0.333,0.202
		c-0.062,0-0.119-0.015-0.174-0.043c-0.087-0.044-0.152-0.122-0.183-0.217c-0.031-0.096-0.022-0.198,0.023-0.288l2.476-4.791
		c0.091-0.177,0.326-0.254,0.506-0.16c0.088,0.045,0.153,0.123,0.184,0.218C13.615,2.005,13.606,2.107,13.561,2.197z"/>
</g>
</svg>
