<?xml version="1.0" encoding="utf-8"?>
<!-- Generator: Adobe Illustrator 15.0.0, SVG Export Plug-In . SVG Version: 6.00 Build 0)  -->
<!DOCTYPE svg PUBLIC "-//W3C//DTD SVG 1.1//EN" "http://www.w3.org/Graphics/SVG/1.1/DTD/svg11.dtd">
<svg version="1.1" id="Layer_1" xmlns="http://www.w3.org/2000/svg" xmlns:xlink="http://www.w3.org/1999/xlink" x="0px" y="0px"
	 width="22.632px" height="22.428px" viewBox="0 0 22.632 22.428" enable-background="new 0 0 22.632 22.428" xml:space="preserve">
<g>
	<g>
		<path fill="none" stroke="#FFFFFF" stroke-miterlimit="10" d="M22.132,20.569c0,0.747-0.611,1.358-1.358,1.358H1.858
			c-0.747,0-1.358-0.611-1.358-1.358V1.858C0.5,1.111,1.111,0.5,1.858,0.5h18.915c0.747,0,1.358,0.611,1.358,1.358V20.569z"/>
	</g>
	<line fill="none" stroke="#FFFFFF" stroke-miterlimit="10" x1="0.575" y1="4.715" x2="22.132" y2="4.715"/>
	
		<line fill="none" stroke="#FFFFFF" stroke-linecap="round" stroke-miterlimit="10" x1="3.905" y1="16.037" x2="18.798" y2="16.037"/>
	
		<line fill="none" stroke="#FFFFFF" stroke-linecap="round" stroke-miterlimit="10" x1="3.905" y1="14.031" x2="18.798" y2="14.031"/>
	
		<line fill="none" stroke="#FFFFFF" stroke-linecap="round" stroke-miterlimit="10" x1="3.905" y1="18.133" x2="18.798" y2="18.133"/>
	
		<rect x="3.37" y="6.316" fill="none" stroke="#FFFFFF" stroke-linecap="round" stroke-linejoin="round" stroke-miterlimit="10" width="4.103" height="4.949"/>
	
		<rect x="9.265" y="6.316" fill="none" stroke="#FFFFFF" stroke-linecap="round" stroke-linejoin="round" stroke-miterlimit="10" width="4.103" height="4.949"/>
	
		<rect x="15.275" y="6.316" fill="none" stroke="#FFFFFF" stroke-linecap="round" stroke-linejoin="round" stroke-miterlimit="10" width="4.103" height="4.949"/>
	<circle fill="none" stroke="#FFFFFF" stroke-miterlimit="10" cx="12.958" cy="2.639" r="0.802"/>
	<circle fill="none" stroke="#FFFFFF" stroke-miterlimit="10" cx="15.9" cy="2.639" r="0.802"/>
	<circle fill="none" stroke="#FFFFFF" stroke-miterlimit="10" cx="18.843" cy="2.639" r="0.803"/>
</g>
</svg>
