<?xml version="1.0" encoding="utf-8"?>
<!-- Generator: Adobe Illustrator 15.0.0, SVG Export Plug-In . SVG Version: 6.00 Build 0)  -->
<!DOCTYPE svg PUBLIC "-//W3C//DTD SVG 1.1//EN" "http://www.w3.org/Graphics/SVG/1.1/DTD/svg11.dtd">
<svg version="1.1" id="Layer_1" xmlns="http://www.w3.org/2000/svg" xmlns:xlink="http://www.w3.org/1999/xlink" x="0px" y="0px"
	 width="25.21px" height="25.777px" viewBox="0 0 25.21 25.777" enable-background="new 0 0 25.21 25.777" xml:space="preserve">
<g>
	<path fill="none" stroke="#FFFFFF" stroke-miterlimit="10" d="M12.232,21.734H1.971c-0.809,0-1.471-0.662-1.471-1.473V1.971
		C0.5,1.162,1.162,0.5,1.971,0.5h10.523c0.809,0,1.472,0.662,1.472,1.471v13.018"/>
	<path fill="none" stroke="#FFFFFF" stroke-linecap="round" stroke-linejoin="round" stroke-miterlimit="10" d="M24.71,20.794
		c0,0-0.896-3.067-2.218-4.768L20.18,12.96c0,0-1.746-0.897-1.746,1.038c0,0-1.274-1.793-2.312,0.425c0,0-1.29-1.18-2.155,0.565"/>
	<path fill="none" stroke="#FFFFFF" stroke-miterlimit="10" d="M15.979,17.914"/>
	<path fill="none" stroke="#FFFFFF" stroke-linecap="round" stroke-linejoin="round" stroke-miterlimit="10" d="M15.979,17.914
		l-3.823-5.238c0,0-0.85-0.661-1.416,0.048c0,0-0.567,0.803,0,1.652l4.482,5.993c0,0-1.084-0.566-2.029-0.991
		c0,0-1.18-0.661-1.793,0.188c0,0-0.566,0.85,0.236,1.604c0.802,0.756,2.265,1.889,2.265,1.889s1.038,0.99,1.982,1.273l2.831,0.944"
		/>
	
		<line fill="none" stroke="#FFFFFF" stroke-linecap="round" stroke-linejoin="round" stroke-miterlimit="10" x1="16.121" y1="14.423" x2="17.632" y2="16.547"/>
	
		<line fill="none" stroke="#FFFFFF" stroke-linecap="round" stroke-linejoin="round" stroke-miterlimit="10" x1="18.434" y1="13.998" x2="19.338" y2="15.225"/>
	
		<line fill="none" stroke="#FFFFFF" stroke-linecap="round" stroke-linejoin="round" stroke-miterlimit="10" x1="0.5" y1="3.332" x2="13.966" y2="3.332"/>
	
		<line fill="none" stroke="#FFFFFF" stroke-linecap="round" stroke-linejoin="round" stroke-miterlimit="10" x1="6.218" y1="1.916" x2="8.247" y2="1.916"/>
	
		<line fill="none" stroke="#FFFFFF" stroke-linecap="round" stroke-linejoin="round" stroke-miterlimit="10" x1="0.5" y1="17.442" x2="12.967" y2="17.442"/>
	
		<circle fill="none" stroke="#FFFFFF" stroke-linecap="round" stroke-linejoin="round" stroke-miterlimit="10" cx="7.233" cy="19.662" r="0.826"/>
	
		<line fill="none" stroke="#FFFFFF" stroke-linecap="round" stroke-linejoin="round" stroke-miterlimit="10" x1="2.529" y1="5.738" x2="9.703" y2="5.738"/>
	
		<line fill="none" stroke="#FFFFFF" stroke-linecap="round" stroke-linejoin="round" stroke-miterlimit="10" x1="2.529" y1="7.862" x2="11.638" y2="7.862"/>
	
		<line fill="none" stroke="#FFFFFF" stroke-linecap="round" stroke-linejoin="round" stroke-miterlimit="10" x1="2.529" y1="9.986" x2="11.638" y2="9.986"/>
	
		<line fill="none" stroke="#FFFFFF" stroke-linecap="round" stroke-linejoin="round" stroke-miterlimit="10" x1="2.529" y1="12.062" x2="8.429" y2="12.062"/>
</g>
</svg>
