<?xml version="1.0" encoding="utf-8"?>
<!-- Generator: Adobe Illustrator 15.0.0, SVG Export Plug-In . SVG Version: 6.00 Build 0)  -->
<!DOCTYPE svg PUBLIC "-//W3C//DTD SVG 1.1//EN" "http://www.w3.org/Graphics/SVG/1.1/DTD/svg11.dtd">
<svg version="1.1" id="Layer_1" xmlns="http://www.w3.org/2000/svg" xmlns:xlink="http://www.w3.org/1999/xlink" x="0px" y="0px"
	 width="22.633px" height="22.427px" viewBox="0 0 22.633 22.427" enable-background="new 0 0 22.633 22.427" xml:space="preserve">
<g>
	<g>
		<path fill="none" stroke="#FFFFFF" stroke-miterlimit="10" d="M22.133,20.568c0,0.747-0.611,1.358-1.358,1.358H1.858
			c-0.747,0-1.358-0.611-1.358-1.358V1.858C0.5,1.111,1.111,0.5,1.858,0.5h18.916c0.747,0,1.358,0.611,1.358,1.358V20.568z"/>
	</g>
	<line fill="none" stroke="#FFFFFF" stroke-miterlimit="10" x1="0.576" y1="4.713" x2="22.133" y2="4.713"/>
	<circle fill="none" stroke="#FFFFFF" stroke-miterlimit="10" cx="12.959" cy="2.637" r="0.803"/>
	<circle fill="none" stroke="#FFFFFF" stroke-miterlimit="10" cx="15.901" cy="2.637" r="0.802"/>
	<circle fill="none" stroke="#FFFFFF" stroke-miterlimit="10" cx="18.844" cy="2.637" r="0.803"/>
	
		<line fill="none" stroke="#FFFFFF" stroke-linecap="round" stroke-linejoin="round" stroke-miterlimit="10" x1="13.072" y1="8.391" x2="9.777" y2="18.581"/>
	<polyline fill="none" stroke="#FFFFFF" stroke-linecap="round" stroke-linejoin="round" stroke-miterlimit="10" points="
		14.781,15.957 19.664,13.395 14.781,11.197 	"/>
	<polyline fill="none" stroke="#FFFFFF" stroke-linecap="round" stroke-linejoin="round" stroke-miterlimit="10" points="
		8.131,11.197 3.432,13.577 8.131,15.774 	"/>
</g>
</svg>
