<?xml version="1.0" encoding="utf-8"?>
<!-- Generator: Adobe Illustrator 15.0.0, SVG Export Plug-In . SVG Version: 6.00 Build 0)  -->
<!DOCTYPE svg PUBLIC "-//W3C//DTD SVG 1.1//EN" "http://www.w3.org/Graphics/SVG/1.1/DTD/svg11.dtd">
<svg version="1.1" id="Layer_1" xmlns="http://www.w3.org/2000/svg" xmlns:xlink="http://www.w3.org/1999/xlink" x="0px" y="0px"
	 width="230.154px" height="200px" viewBox="0 0 230.154 200" enable-background="new 0 0 230.154 200" xml:space="preserve">
<path fill="#FF9599" d="M218.259,70.8h-7.12c-5.701-19.123-16.587-34.033-29.458-45.323C164.901,10.761,139.955-2.46,106.673,0.39
	C91.852,1.66,78.112,5.954,67.539,11.68c-10.894,5.897-20.32,13.472-27.847,22.075c-8.604,9.836-16.257,22.2-20.747,37.045h-7.049
	C5.354,70.8,0,76.153,0,82.696v57.351c0,6.543,5.354,11.896,11.896,11.896h17.254c5.391,8.646,11.997,16.145,19.322,22.797
	c15.87,14.412,43.565,27.841,74.758,24.835c29.643-2.856,50.635-15.703,66.479-33.364c3.85-4.29,7.541-9.036,10.866-14.268h17.684
	c6.543,0,11.896-5.354,11.896-11.896V82.696C230.155,76.153,224.802,70.8,218.259,70.8z M186.196,49.058
	c4.633,6.441,8.577,13.567,11.477,21.742h-34.956c-0.637-3.3-1.346-6.526-2.107-9.7c3.773-2.519,8.438-3.736,12.794-5.771
	C177.948,53.207,182.544,50.34,186.196,49.058z M135.021,14.94c13.139,2.875,24.975,9.088,34.368,16.306
	c3.038,2.336,6.084,4.922,8.027,8.028c-4.939,2.217-9.537,4.718-15.304,7.024c-1.282,0.514-4.433,2.016-5.519,1.756
	c-1.492-0.359-4.094-6.806-5.018-8.529c-4.826-9.02-10.675-18.218-16.809-24.335C134.725,14.979,134.867,14.956,135.021,14.94z
	 M121.224,19.707c9.602,8.461,16.86,19.264,22.327,31.859c-6.781,1.665-14.333,2.559-22.327,3.011
	C121.224,42.954,121.224,31.329,121.224,19.707z M121.224,67.12c9.393-0.477,18.33-1.405,26.34-3.262
	c0.994,2.127,1.781,4.461,2.422,6.941h-28.762C121.224,69.573,121.224,68.347,121.224,67.12z M108.179,19.456
	c0.674,10.867,0.717,23.696,0.25,34.87c-8.03-0.332-15.328-1.397-22.076-3.011C91.383,38.451,99.243,28.414,108.179,19.456z
	 M108.68,67.12c0,1.227,0,2.453,0,3.68H79.748c0.604-2.489,1.299-4.889,2.09-7.191C90.302,65.261,99.097,66.586,108.68,67.12z
	 M70.549,24.724c7.14-4.174,14.733-7.396,23.33-9.783c0.083,0,0.168,0,0.251,0c0.334,1.556-1.382,2.696-2.258,3.763
	C85.001,27.073,78.426,37.23,73.81,48.056c-7.608-2.426-14.417-5.652-21.323-8.78C56.904,33.195,63.595,28.791,70.549,24.724z
	 M43.707,49.058C52.186,52.871,60.349,57,69.294,60.346c-0.809,3.411-1.541,6.895-2.2,10.454H32.253
	C35.172,62.654,39.136,55.553,43.707,49.058z M48.148,98.803h-0.15c-0.902,6.08-1.729,11.2-2.934,16.64l-4.812,23.201H27.693
	L15.661,84.723h12.258l3.835,22.16c1.128,6.48,2.181,13.44,3.008,18.881h0.15c0.826-5.84,2.029-12.32,3.309-19.041l4.286-22H54.69
	l4.062,22.72c1.128,6.32,1.955,12.08,2.708,18.08h0.149c0.752-6,1.88-12.319,2.934-18.801l4.136-22h11.656L67.25,138.645H54.841
	l-4.286-23.201C49.577,110.003,48.75,104.963,48.148,98.803z M51.985,159.939c5.613-2.883,11.405-5.584,17.487-7.996h4.206
	c1.542,2.455,2.587,5.144,3.896,7.744c4.438,8.826,10.22,17.351,15.553,24.836C75.89,179.854,61.964,171.867,51.985,159.939z
	 M108.68,181.264c-1.148,0.538-2.511-1.672-3.512-2.76c-6.727-7.316-13.109-16.439-17.504-26.561h21.005
	C108.966,161.422,108.42,171.746,108.68,181.264z M115.303,98.803h-0.15c-0.901,6.08-1.729,11.2-2.933,16.64l-4.812,23.201h-12.56
	L82.816,84.723h12.259l3.835,22.16c1.128,6.48,2.181,13.44,3.008,18.881h0.149c0.827-5.84,2.03-12.32,3.31-19.041l4.287-22h12.183
	l4.062,22.72c1.129,6.32,1.955,12.08,2.706,18.08h0.15c0.753-6,1.881-12.319,2.935-18.801l4.136-22h11.656l-13.086,53.921h-12.407
	l-4.286-23.201C116.732,110.003,115.905,104.963,115.303,98.803z M121.224,181.764c0-9.939,0-19.88,0-29.82h20.889
	C136.982,163.716,129.831,173.469,121.224,181.764z M159.856,174.991c-6.861,4.088-14.55,7.581-23.331,9.532
	c7.36-10.004,14.236-20.49,19.512-32.58h4.361c6.236,2.27,11.891,5.121,17.521,7.996
	C173.229,166.219,166.667,170.936,159.856,174.991z M201.56,138.645h-12.408l-4.285-23.201c-0.979-5.439-1.806-10.479-2.406-16.64
	h-0.151c-0.901,6.08-1.729,11.2-2.933,16.64l-4.813,23.201h-12.559l-12.032-53.921h12.258l3.836,22.16
	c1.128,6.48,2.182,13.44,3.009,18.881h0.149c0.827-5.84,2.031-12.32,3.31-19.041l4.285-22h12.185l4.061,22.72
	c1.129,6.32,1.956,12.08,2.707,18.08h0.15c0.753-6,1.881-12.319,2.933-18.801l4.138-22h11.655L201.56,138.645z"/>
</svg>
