<?xml version="1.0" encoding="utf-8"?>
<!-- Generator: Adobe Illustrator 15.0.0, SVG Export Plug-In . SVG Version: 6.00 Build 0)  -->
<!DOCTYPE svg PUBLIC "-//W3C//DTD SVG 1.1//EN" "http://www.w3.org/Graphics/SVG/1.1/DTD/svg11.dtd">
<svg version="1.1" id="Layer_1" xmlns="http://www.w3.org/2000/svg" xmlns:xlink="http://www.w3.org/1999/xlink" x="0px" y="0px"
	 width="280.908px" height="305.794px" viewBox="0 0 280.908 305.794" enable-background="new 0 0 280.908 305.794"
	 xml:space="preserve">
<g>
	<g>
		<path fill="#2A1B31" d="M280.544,113.997c0,62.758-50.872,113.634-113.63,113.634c-62.761,0-113.634-50.876-113.634-113.634
			c0-62.758,50.873-113.633,113.634-113.633C229.672,0.364,280.544,51.238,280.544,113.997z"/>
		<path fill="none" stroke="#FFFFFF" stroke-width="0.7277" stroke-miterlimit="10" stroke-dasharray="2.1768,2.1768" d="
			M280.544,113.997c0,62.758-50.872,113.634-113.63,113.634c-62.761,0-113.634-50.876-113.634-113.634
			c0-62.758,50.873-113.633,113.634-113.633C229.672,0.364,280.544,51.238,280.544,113.997z"/>
	</g>
	<path fill="#382234" d="M245.41,145.492c0,62.76-50.874,113.635-113.63,113.635c-62.761,0-113.635-50.875-113.635-113.635
		c0-62.758,50.874-113.632,113.635-113.632C194.536,31.859,245.41,82.734,245.41,145.492z"/>
	<g>
		<path fill="#FC4E55" d="M227.266,192.16c0,62.759-50.874,113.635-113.631,113.635C50.874,305.794,0,254.918,0,192.16
			S50.874,78.526,113.635,78.526C176.392,78.526,227.266,129.401,227.266,192.16z"/>
		<circle fill="none" stroke="#1D1830" stroke-width="4.517" stroke-miterlimit="10" cx="113.633" cy="192.16" r="57.492"/>
		<circle fill="none" stroke="#1D1830" stroke-width="4.517" stroke-miterlimit="10" cx="113.633" cy="192.16" r="101.369"/>
		<g>
			<path fill="none" d="M44.329,191.821c0-38.276,31.03-69.303,69.303-69.303c38.276,0,69.304,31.027,69.304,69.303"/>
			<text transform="matrix(0.5881 -0.8088 0.8088 0.5881 51.7686 159.0522)"><tspan x="0" y="0" fill="#FFFFFF" font-family="'AvenirNext-Bold'" font-size="25.3739">D</tspan><tspan x="19.256" y="0.214" fill="#FFFFFF" font-family="'AvenirNext-Bold'" font-size="25.3739" rotate="14.043">E</tspan><tspan x="33.961" y="3.885" fill="#FFFFFF" font-family="'AvenirNext-Bold'" font-size="25.3739" rotate="26.337">S</tspan><tspan x="47.204" y="10.755" fill="#FFFFFF" font-family="'AvenirNext-Bold'" font-size="25.3739" rotate="35.861">I</tspan><tspan x="53.967" y="14.933" fill="#FFFFFF" font-family="'AvenirNext-Bold'" font-size="25.3739" rotate="47.12">G</tspan><tspan x="67.016" y="28.835" fill="#FFFFFF" font-family="'AvenirNext-Bold'" font-size="25.3739" rotate="62.847">N</tspan><tspan x="75.751" y="46.447" fill="#FFFFFF" font-family="'AvenirNext-Bold'" font-size="25.3739" rotate="77.06">S</tspan><tspan x="78.776" y="61.086" fill="#FFFFFF" font-family="'AvenirNext-Bold'" font-size="25.3739" rotate="85.869"> </tspan><tspan x="79.667" y="67.343" fill="#FFFFFF" font-family="'AvenirNext-Bold'" font-size="25.3739" rotate="95.35">B</tspan><tspan x="78.166" y="83.843" fill="#FFFFFF" font-family="'AvenirNext-Bold'" font-size="25.3739" rotate="108.949">Y</tspan></text>
		</g>
		<g>
			<path fill="none" d="M24.696,192.162c0,49.119,39.819,88.939,88.936,88.939c49.122,0,88.938-39.82,88.938-88.939"/>
			<text transform="matrix(0.5905 0.8071 -0.8071 0.5905 37.8467 239.2085)"><tspan x="0" y="0" fill="#FFFFFF" font-family="'AvenirNext-Bold'" font-size="25.3739">J</tspan><tspan x="16.768" y="0.085" fill="#FFFFFF" font-family="'AvenirNext-Bold'" font-size="25.3739" rotate="-13.294">O</tspan><tspan x="40.885" y="-6.449" fill="#FFFFFF" font-family="'AvenirNext-Bold'" font-size="25.3739" rotate="-27.233">S</tspan><tspan x="57.097" y="-14.934" fill="#FFFFFF" font-family="'AvenirNext-Bold'" font-size="25.3739" rotate="-40.476">H</tspan><tspan x="73.271" y="-29.78" fill="#FFFFFF" font-family="'AvenirNext-Bold'" font-size="25.3739" rotate="-50.433"> </tspan><tspan x="79.902" y="-36.673" fill="#FFFFFF" font-family="'AvenirNext-Bold'" font-size="25.3739" rotate="-62.689">W</tspan><tspan x="92.515" y="-63.738" fill="#FFFFFF" font-family="'AvenirNext-Bold'" font-size="25.3739" rotate="-79.058">R</tspan><tspan x="95.888" y="-83.378" fill="#FFFFFF" font-family="'AvenirNext-Bold'" font-size="25.3739" rotate="-91.417">E</tspan><tspan x="95.302" y="-102.145" fill="#FFFFFF" font-family="'AvenirNext-Bold'" font-size="25.3739" rotate="-104.879">N</tspan></text>
		</g>
		<circle fill="none" stroke="#1D1830" stroke-width="3.6136" stroke-miterlimit="10" cx="113.634" cy="192.16" r="39.716"/>
		
			<line fill="none" stroke="#1D1830" stroke-width="4.517" stroke-miterlimit="10" x1="58.648" y1="172.42" x2="18.146" y2="158.814"/>
		
			<line fill="none" stroke="#1D1830" stroke-width="4.517" stroke-miterlimit="10" x1="59.06" y1="214.637" x2="19.412" y2="232.081"/>
		
			<line fill="none" stroke="#1D1830" stroke-width="4.517" stroke-miterlimit="10" x1="168.587" y1="172.42" x2="209.093" y2="158.814"/>
		
			<line fill="none" stroke="#1D1830" stroke-width="4.517" stroke-miterlimit="10" x1="168.178" y1="214.637" x2="207.824" y2="232.081"/>
		<path fill="none" d="M113.391,268.348c-41.003,0-74.242-33.242-74.242-74.243c0-41.005,33.239-74.246,74.242-74.246"/>
		
			<text transform="matrix(-0.2062 -0.9785 1.1448 -0.2413 41.5879 213.4956)" fill="#FFFFFF" font-family="'AvenirNext-Bold'" font-size="12.7841">P</text>
		
			<text transform="matrix(-0.0948 -0.9955 1.1647 -0.1109 39.8867 205.4468)" fill="#FFFFFF" font-family="'AvenirNext-Bold'" font-size="12.7841">R</text>
		
			<text transform="matrix(-0.0162 -0.9999 1.1698 -0.019 39.1846 196.8882)" fill="#FFFFFF" font-family="'AvenirNext-Bold'" font-size="12.7841">I</text>
		
			<text transform="matrix(0.0849 -0.9964 1.1658 0.0994 38.9902 192.7476)" fill="#FFFFFF" font-family="'AvenirNext-Bold'" font-size="12.7841">N</text>
		
			<text transform="matrix(0.202 -0.9794 1.1459 0.2363 39.9287 182.6665)" fill="#FFFFFF" font-family="'AvenirNext-Bold'" font-size="12.7841">T</text>
		<path fill="none" d="M111.831,281.625c48.335,0,87.519-39.184,87.519-87.518c0-48.337-39.184-87.518-87.519-87.518"/>
		
			<text transform="matrix(0.1273 -0.9919 1.0911 0.14 197.7314 212.3804)" fill="#FFFFFF" font-family="'AvenirNext-Bold'" font-size="13.8177">W</text>
		
			<text transform="matrix(-0.0265 -0.9996 1.0996 -0.0292 199.4297 195.9351)" fill="#FFFFFF" font-family="'AvenirNext-Bold'" font-size="13.8177">E</text>
		
			<text transform="matrix(-0.151 -0.9885 1.0874 -0.1661 199.0352 185.3198)" fill="#FFFFFF" font-family="'AvenirNext-Bold'" font-size="13.8177">B</text>
		<g>
			
				<circle fill="none" stroke="#1D1830" stroke-width="15.3578" stroke-miterlimit="10" stroke-dasharray="3.1866,3.1866" cx="113.633" cy="192.16" r="48.701"/>
		</g>
		<g>
			<g>
				<path fill-rule="evenodd" clip-rule="evenodd" fill="#FFFFFF" d="M92.267,169.074c1.196-0.26,2.181,1.289,3.012,2.119
					c1.699,1.699,3.173,3.173,5.019,5.018c0.941,0.941,2.262,1.836,2.341,2.676c0.1,1.066-0.889,1.908-1.675,1.896
					c-0.991-0.015-2.176-1.62-2.785-2.23c-1.629-1.629-3.27-3.269-5.018-5.017c-0.58-0.579-2.267-1.877-2.343-2.677
					C90.739,170.035,91.695,169.199,92.267,169.074z"/>
				<path fill-rule="evenodd" clip-rule="evenodd" fill="#FFFFFF" d="M122.931,169.186c1.287-0.358,2.223,0.485,2.231,1.562
					c0.004,1.088-1.488,2.041-2.231,2.787c-1.682,1.678-3.232,3.23-5.017,5.017c-0.68,0.675-1.853,2.187-2.677,2.23
					c-0.963,0.052-1.805-0.997-1.784-1.784c0.02-0.899,1.43-1.988,2.115-2.677c2.479-2.478,4.687-4.613,7.137-7.024
					C122.71,169.189,122.841,169.211,122.931,169.186z"/>
				<path fill-rule="evenodd" clip-rule="evenodd" fill="#FFFFFF" d="M109.438,170.412c0.188,1.978,0.182,4.713,0,6.69
					c-0.582,0.868-2.299,0.793-2.898,0c-0.245-1.946-0.05-4.339-0.111-6.468C106.815,169.609,108.853,169.459,109.438,170.412z"/>
				<g>
					<path fill="#1D1830" d="M113.425,190.739c3.28,1.174,6.493,2.312,9.625,3.42c2.802,0.992,5.662,2.004,8.61,3.057
						c-0.046,0.02-0.093,0.039-0.139,0.059c-1.343,0.567-2.722,1.148-4.284,1.833c-0.082,0.035-0.176,0.073-0.275,0.114
						c-0.843,0.347-1.997,0.821-2.972,1.757c-1.241,1.19-1.895,2.746-2.621,4.657c-0.108,0.284-0.204,0.546-0.284,0.726
						c-0.411,0.918-0.773,1.758-1.125,2.587c-1.29-3.577-2.554-7.105-3.791-10.558C115.26,195.852,114.35,193.309,113.425,190.739
						 M107.33,183.393c-0.175,0-0.329,0.021-0.457,0.065c-1.493,0.529-0.653,2.268-0.222,3.455
						c3.625,10.019,6.951,19.426,10.592,29.436c0.558,1.539,1.226,3.268,2.664,3.268c0.111,0,0.228-0.011,0.348-0.032
						c0.884-0.161,1.682-2.354,2.119-3.349c1.303-2.955,2.13-5.092,3.343-7.801c0.432-0.973,1.079-3.117,1.784-3.793
						c0.363-0.349,1.253-0.658,1.784-0.893c3.547-1.553,6.191-2.593,9.588-4.125c0.967-0.436,3.154-1.221,3.344-2.118
						c0.372-1.756-1.428-2.397-3.118-3.011c-9.593-3.471-17.982-6.372-27.208-9.7C110.72,184.373,108.539,183.392,107.33,183.393
						L107.33,183.393z"/>
				</g>
				<path fill-rule="evenodd" clip-rule="evenodd" fill="#FFFFFF" d="M98.848,184.683c0.809,0.5,0.88,2.297,0.109,2.9
					c-2.02,0.183-4.783,0.183-6.801,0c-0.884-0.916-0.81-2.666,0.443-3.01C94.238,184.122,97.266,184.831,98.848,184.683z"/>
				<path fill-rule="evenodd" clip-rule="evenodd" fill="#FFFFFF" d="M100.519,191.821c1.19-0.358,2.243,0.595,2.229,1.562
					c-0.011,0.865-1.484,2.04-2.12,2.674c-1.806,1.807-2.956,2.957-4.792,4.796c-0.679,0.677-1.785,2.071-2.564,2.117
					c-0.998,0.06-1.774-0.926-1.785-1.671c-0.011-0.895,1.298-1.855,2.007-2.566c2.224-2.225,4.491-5.135,6.804-6.801
					C100.366,191.879,100.421,191.849,100.519,191.821z"/>
			</g>
		</g>
	</g>
</g>
</svg>
