<?xml version="1.0" encoding="utf-8"?>
<!-- Generator: Adobe Illustrator 15.0.0, SVG Export Plug-In . SVG Version: 6.00 Build 0)  -->
<!DOCTYPE svg PUBLIC "-//W3C//DTD SVG 1.1//EN" "http://www.w3.org/Graphics/SVG/1.1/DTD/svg11.dtd">
<svg version="1.1" id="Layer_2" xmlns="http://www.w3.org/2000/svg" xmlns:xlink="http://www.w3.org/1999/xlink" x="0px" y="0px"
	 width="227.266px" height="227.268px" viewBox="0 0 227.266 227.268" enable-background="new 0 0 227.266 227.268"
	 xml:space="preserve">
<g>
	<path fill="#FC4E55" d="M227.266,113.633c0,62.759-50.874,113.635-113.631,113.635C50.874,227.268,0,176.392,0,113.633
		C0,50.875,50.874,0,113.635,0C176.392,0,227.266,50.875,227.266,113.633z"/>
	<circle fill="none" stroke="#1D1830" stroke-width="4.517" stroke-miterlimit="10" cx="113.633" cy="113.633" r="57.492"/>
	<circle fill="none" stroke="#1D1830" stroke-width="4.517" stroke-miterlimit="10" cx="113.633" cy="113.633" r="101.369"/>
	<g>
		<path fill="none" d="M44.329,113.294c0-38.276,31.03-69.303,69.303-69.303c38.276,0,69.304,31.027,69.304,69.303"/>
		<text transform="matrix(0.5881 -0.8088 0.8088 0.5881 51.7686 80.5264)"><tspan x="0" y="0" fill="#FFFFFF" font-family="'AvenirNext-Bold'" font-size="25.3739">D</tspan><tspan x="19.257" y="0.214" fill="#FFFFFF" font-family="'AvenirNext-Bold'" font-size="25.3739" rotate="14.043">E</tspan><tspan x="33.962" y="3.884" fill="#FFFFFF" font-family="'AvenirNext-Bold'" font-size="25.3739" rotate="26.337">S</tspan><tspan x="47.205" y="10.755" fill="#FFFFFF" font-family="'AvenirNext-Bold'" font-size="25.3739" rotate="35.861">I</tspan><tspan x="53.967" y="14.932" fill="#FFFFFF" font-family="'AvenirNext-Bold'" font-size="25.3739" rotate="47.12">G</tspan><tspan x="67.016" y="28.834" fill="#FFFFFF" font-family="'AvenirNext-Bold'" font-size="25.3739" rotate="62.847">N</tspan><tspan x="75.751" y="46.447" fill="#FFFFFF" font-family="'AvenirNext-Bold'" font-size="25.3739" rotate="77.06">S</tspan><tspan x="78.776" y="61.086" fill="#FFFFFF" font-family="'AvenirNext-Bold'" font-size="25.3739" rotate="85.869"> </tspan><tspan x="79.668" y="67.343" fill="#FFFFFF" font-family="'AvenirNext-Bold'" font-size="25.3739" rotate="95.35">B</tspan><tspan x="78.166" y="83.843" fill="#FFFFFF" font-family="'AvenirNext-Bold'" font-size="25.3739" rotate="108.949">Y</tspan></text>
	</g>
	<g>
		<path fill="none" d="M24.696,113.636c0,49.119,39.819,88.939,88.936,88.939c49.122,0,88.938-39.82,88.938-88.939"/>
		<text transform="matrix(0.5905 0.8071 -0.8071 0.5905 37.8467 160.6816)"><tspan x="0" y="0" fill="#FFFFFF" font-family="'AvenirNext-Bold'" font-size="25.3739">J</tspan><tspan x="16.768" y="0.085" fill="#FFFFFF" font-family="'AvenirNext-Bold'" font-size="25.3739" rotate="-13.294">O</tspan><tspan x="40.885" y="-6.449" fill="#FFFFFF" font-family="'AvenirNext-Bold'" font-size="25.3739" rotate="-27.233">S</tspan><tspan x="57.097" y="-14.934" fill="#FFFFFF" font-family="'AvenirNext-Bold'" font-size="25.3739" rotate="-40.476">H</tspan><tspan x="73.271" y="-29.779" fill="#FFFFFF" font-family="'AvenirNext-Bold'" font-size="25.3739" rotate="-50.433"> </tspan><tspan x="79.902" y="-36.673" fill="#FFFFFF" font-family="'AvenirNext-Bold'" font-size="25.3739" rotate="-62.689">W</tspan><tspan x="92.515" y="-63.738" fill="#FFFFFF" font-family="'AvenirNext-Bold'" font-size="25.3739" rotate="-79.058">R</tspan><tspan x="95.889" y="-83.378" fill="#FFFFFF" font-family="'AvenirNext-Bold'" font-size="25.3739" rotate="-91.417">E</tspan><tspan x="95.302" y="-102.145" fill="#FFFFFF" font-family="'AvenirNext-Bold'" font-size="25.3739" rotate="-104.879">N</tspan></text>
	</g>
	<circle fill="none" stroke="#1D1830" stroke-width="3.6136" stroke-miterlimit="10" cx="113.634" cy="113.633" r="39.716"/>
	
		<line fill="none" stroke="#1D1830" stroke-width="4.517" stroke-miterlimit="10" x1="58.648" y1="93.894" x2="18.146" y2="80.288"/>
	
		<line fill="none" stroke="#1D1830" stroke-width="4.517" stroke-miterlimit="10" x1="59.06" y1="136.111" x2="19.412" y2="153.554"/>
	
		<line fill="none" stroke="#1D1830" stroke-width="4.517" stroke-miterlimit="10" x1="168.587" y1="93.894" x2="209.093" y2="80.288"/>
	
		<line fill="none" stroke="#1D1830" stroke-width="4.517" stroke-miterlimit="10" x1="168.178" y1="136.111" x2="207.824" y2="153.554"/>
	<path fill="none" d="M113.391,189.822c-41.003,0-74.242-33.242-74.242-74.243c0-41.005,33.239-74.246,74.242-74.246"/>
	
		<text transform="matrix(-0.2062 -0.9785 1.1448 -0.2413 41.5879 134.9688)" fill="#FFFFFF" font-family="'AvenirNext-Bold'" font-size="12.7841">P</text>
	
		<text transform="matrix(-0.0948 -0.9955 1.1647 -0.1109 39.8867 126.9199)" fill="#FFFFFF" font-family="'AvenirNext-Bold'" font-size="12.7841">R</text>
	
		<text transform="matrix(-0.0162 -0.9999 1.1698 -0.019 39.1846 118.3618)" fill="#FFFFFF" font-family="'AvenirNext-Bold'" font-size="12.7841">I</text>
	
		<text transform="matrix(0.0849 -0.9964 1.1658 0.0994 38.9902 114.2212)" fill="#FFFFFF" font-family="'AvenirNext-Bold'" font-size="12.7841">N</text>
	
		<text transform="matrix(0.202 -0.9794 1.1459 0.2363 39.9287 104.1401)" fill="#FFFFFF" font-family="'AvenirNext-Bold'" font-size="12.7841">T</text>
	<path fill="none" d="M111.831,203.098c48.335,0,87.519-39.183,87.519-87.518c0-48.337-39.184-87.518-87.519-87.518"/>
	
		<text transform="matrix(0.1273 -0.9919 1.0911 0.14 197.7314 133.854)" fill="#FFFFFF" font-family="'AvenirNext-Bold'" font-size="13.8177">W</text>
	
		<text transform="matrix(-0.0265 -0.9996 1.0996 -0.0292 199.4297 117.4092)" fill="#FFFFFF" font-family="'AvenirNext-Bold'" font-size="13.8177">E</text>
	
		<text transform="matrix(-0.151 -0.9885 1.0874 -0.1661 199.0352 106.7939)" fill="#FFFFFF" font-family="'AvenirNext-Bold'" font-size="13.8177">B</text>
	<g>
		
			<circle fill="none" stroke="#1D1830" stroke-width="15.3578" stroke-miterlimit="10" stroke-dasharray="3.1866,3.1866" cx="113.633" cy="113.633" r="48.701"/>
	</g>
	<g>
		<g>
			<path fill-rule="evenodd" clip-rule="evenodd" fill="#FFFFFF" d="M92.267,90.547c1.196-0.26,2.181,1.289,3.012,2.119
				c1.699,1.699,3.173,3.173,5.019,5.018c0.941,0.941,2.262,1.836,2.341,2.675c0.1,1.067-0.889,1.908-1.675,1.896
				c-0.991-0.015-2.176-1.621-2.785-2.23c-1.629-1.629-3.27-3.269-5.018-5.017c-0.58-0.579-2.267-1.877-2.343-2.677
				C90.739,91.508,91.695,90.673,92.267,90.547z"/>
			<path fill-rule="evenodd" clip-rule="evenodd" fill="#FFFFFF" d="M122.931,90.66c1.287-0.358,2.223,0.485,2.231,1.562
				c0.004,1.087-1.488,2.041-2.231,2.787c-1.682,1.678-3.232,3.231-5.017,5.017c-0.68,0.674-1.853,2.186-2.677,2.23
				c-0.963,0.052-1.805-0.997-1.784-1.784c0.02-0.899,1.43-1.988,2.115-2.677c2.479-2.477,4.687-4.613,7.137-7.024
				C122.71,90.663,122.841,90.685,122.931,90.66z"/>
			<path fill-rule="evenodd" clip-rule="evenodd" fill="#FFFFFF" d="M109.438,91.885c0.188,1.978,0.182,4.713,0,6.69
				c-0.582,0.869-2.299,0.793-2.898,0c-0.245-1.946-0.05-4.338-0.111-6.467C106.815,91.083,108.853,90.933,109.438,91.885z"/>
			<g>
				<path fill="#1D1830" d="M113.426,112.213c3.287,1.176,6.508,2.316,9.647,3.428c2.795,0.989,5.646,1.999,8.588,3.049
					c-0.048,0.02-0.096,0.041-0.144,0.061c-1.343,0.566-2.72,1.147-4.277,1.829c-0.081,0.036-0.175,0.074-0.274,0.114
					c-0.844,0.347-1.999,0.822-2.978,1.76c-1.24,1.19-1.895,2.746-2.62,4.657c-0.108,0.285-0.203,0.546-0.283,0.726
					c-0.411,0.917-0.773,1.758-1.124,2.586c-1.292-3.58-2.557-7.112-3.795-10.567C115.258,117.319,114.348,114.78,113.426,112.213
					 M107.329,104.866c-0.174,0-0.328,0.021-0.456,0.066c-1.493,0.53-0.653,2.268-0.222,3.456
					c3.625,10.019,6.951,19.426,10.592,29.436c0.558,1.539,1.226,3.268,2.663,3.268c0.111,0,0.228-0.011,0.349-0.032
					c0.884-0.161,1.682-2.355,2.119-3.348c1.303-2.956,2.13-5.092,3.343-7.801c0.432-0.973,1.079-3.117,1.784-3.793
					c0.363-0.348,1.253-0.658,1.784-0.892c3.547-1.552,6.191-2.593,9.588-4.125c0.967-0.436,3.154-1.221,3.344-2.119
					c0.372-1.756-1.428-2.397-3.118-3.011c-9.593-3.47-17.982-6.372-27.208-9.7C110.72,105.847,108.538,104.866,107.329,104.866
					L107.329,104.866z"/>
			</g>
			<path fill-rule="evenodd" clip-rule="evenodd" fill="#FFFFFF" d="M98.848,106.157c0.809,0.5,0.88,2.297,0.109,2.9
				c-2.02,0.183-4.783,0.183-6.801,0c-0.884-0.916-0.81-2.666,0.443-3.01C94.238,105.595,97.266,106.304,98.848,106.157z"/>
			<path fill-rule="evenodd" clip-rule="evenodd" fill="#FFFFFF" d="M100.519,113.294c1.19-0.358,2.243,0.594,2.229,1.561
				c-0.011,0.865-1.484,2.041-2.12,2.674c-1.806,1.807-2.956,2.957-4.792,4.796c-0.679,0.677-1.785,2.071-2.564,2.117
				c-0.998,0.06-1.774-0.926-1.785-1.671c-0.011-0.894,1.298-1.855,2.007-2.566c2.224-2.224,4.491-5.134,6.804-6.801
				C100.366,113.353,100.421,113.323,100.519,113.294z"/>
		</g>
	</g>
</g>
</svg>
