<?xml version="1.0" encoding="utf-8"?>
<!-- Generator: Adobe Illustrator 15.0.0, SVG Export Plug-In . SVG Version: 6.00 Build 0)  -->
<!DOCTYPE svg PUBLIC "-//W3C//DTD SVG 1.1//EN" "http://www.w3.org/Graphics/SVG/1.1/DTD/svg11.dtd">
<svg version="1.1" id="Layer_1" xmlns="http://www.w3.org/2000/svg" xmlns:xlink="http://www.w3.org/1999/xlink" x="0px" y="0px"
	 width="2560px" height="500px" viewBox="0 0 2560 500" enable-background="new 0 0 2560 500" xml:space="preserve">
<g>
	<path fill="#F2DAA7" d="M-19.845,338.796c1.155,1.663,2.624,1.452,3.265-0.469l7.595-22.785c0.641-1.921-0.463-3.184-2.453-2.806
		l-19.8,3.759c-1.99,0.378-2.672,2.048-1.517,3.711L-19.845,338.796z"/>
</g>
<g>
	<path fill="#E7C4B1" d="M56.864,387.349c1.123,1.685,2.91,1.652,3.972-0.072l12.566-20.42c1.062-1.724,0.28-2.978-1.735-2.784
		l-24.836,2.378c-2.016,0.193-2.746,1.729-1.623,3.415L56.864,387.349z"/>
</g>
<g>
	<path fill="#F2DAA7" d="M-66.189,483.078c1.049,1.732,2.56,1.627,3.357-0.234l8.392-19.583c0.798-1.861-0.201-3.253-2.22-3.094
		l-18.666,1.474c-2.019,0.159-2.812,1.707-1.763,3.439L-66.189,483.078z"/>
</g>
<g>
	<path fill="#E7C4B1" d="M109.247,498.092c-1.903-0.691-2.216-2.353-0.696-3.689l21.505-18.92c1.52-1.337,3.445-0.922,4.278,0.925
		l15.108,33.495c0.833,1.847-0.043,2.79-1.946,2.099L109.247,498.092z"/>
</g>
<g>
	<path fill="#E7C3AE" d="M330.493,461.454c-2.008,0.263-3.081-1.079-2.384-2.98l10.128-27.648c0.697-1.901,2.138-2.048,3.202-0.325
		l14.951,24.192c1.064,1.723,0.293,3.346-1.715,3.608L330.493,461.454z"/>
</g>
<g>
	<path fill="#E7C3AE" d="M460.713,312.194c-0.979-1.772-0.126-3.321,1.895-3.442l15.577-0.931c2.021-0.121,2.75,1.155,1.621,2.835
		l-8.896,13.223c-1.13,1.68-2.856,1.604-3.835-0.168L460.713,312.194z"/>
</g>
<g>
	<path fill="#9FD4E4" d="M301.999,345.198c0.68,1.907,2.547,2.453,4.147,1.213l22.239-17.222c1.601-1.24,1.539-3.184-0.137-4.319
		l-41.127-27.864c-1.676-1.136-2.491-0.504-1.811,1.403L301.999,345.198z"/>
</g>
<g>
	<path fill="#E7C3AE" d="M435.377,434.494c-1.16-1.659-0.469-3.255,1.535-3.545l21.115-3.054c2.004-0.29,3.06,1.023,2.347,2.918
		l-8.356,22.197c-0.713,1.895-2.246,2.087-3.405,0.428L435.377,434.494z"/>
</g>
<g>
	<path fill="#F2DAA7" d="M498.513,390.374c-0.69,1.903,0.392,3.286,2.406,3.071l24.845-2.644c2.014-0.214,2.789-1.798,1.722-3.52
		l-15.627-25.221c-1.066-1.722-2.504-1.572-3.194,0.331L498.513,390.374z"/>
</g>
<g>
	<path fill="#F2DAA7" d="M505.651,496.314c-1.041-1.737-2.499-1.616-3.24,0.269l-10.996,27.965c-0.741,1.885,0.288,3.16,2.287,2.835
		l24.217-3.947c1.999-0.326,2.782-2.014,1.741-3.751L505.651,496.314z"/>
</g>
<g>
	<path fill="#F2DAA7" d="M558.415,323.379c-2.018,0.168-2.849,1.746-1.847,3.505l11.753,20.636c1.002,1.76,2.222,1.591,2.71-0.374
		l5.412-21.772c0.489-1.965-0.763-3.435-2.781-3.267L558.415,323.379z"/>
</g>
<g>
	<path fill="#F2DAA7" d="M354.886,272.842c-0.365,1.992,0.946,3.231,2.915,2.754l26.72-6.477c1.968-0.477,2.542-2.16,1.274-3.739
		l-21.744-27.106c-1.267-1.58-2.603-1.243-2.967,0.75L354.886,272.842z"/>
</g>
<g>
	<path fill="#F2DAA7" d="M227.743,278.796c1.056,1.728,2.535,1.604,3.287-0.277l10.954-27.382c0.752-1.88-0.28-3.245-2.294-3.033
		l-25.185,2.651c-2.014,0.212-2.798,1.799-1.742,3.527L227.743,278.796z"/>
</g>
<g>
	<path fill="#9FD4E4" d="M82.471,272.994c1.308,1.546,2.529,1.154,2.529-0.871v-16.567c0-2.025-1.688-3.059-3.564-2.298
		l-8.325,3.344c-1.876,0.761-2.304,2.648-0.997,4.194L82.471,272.994z"/>
</g>
<g>
	<path fill="#9FD4E4" d="M-129.706,270.16c-1.846,0.832-2.717-0.015-1.935-1.883l7.18-17.161c0.781-1.868,3.065-3.195,5.075-2.948
		l26.577,3.259c2.01,0.247,2.144,1.129,0.298,1.961L-129.706,270.16z"/>
</g>
<g>
	<path fill="#F2DAA7" d="M-165.913,321.802c-1.026-1.195-9.418,23.379-9.418,23.379c-0.654,1.916-2.143,2.128-3.307,0.472
		l-13.561-19.296c-1.164-1.657-0.462-3.102,1.56-3.212L-165.913,321.802z"/>
</g>
<g>
	<path fill="#C6BFD7" d="M-56.672,372c2.025,0,2.679,1.083,1.454,2.695l-8.547,11.129c-1.225,1.612-3.121,1.477-4.212-0.229
		l-6.98-10.701c-1.091-1.706-0.328-2.895,1.697-2.895H-56.672z"/>
</g>
<g>
	<path fill="#C6BFD7" d="M208.412,394.835c0.092-2.022,1.44-2.616,2.995-1.318l16.814,14.032c1.555,1.298,1.392,3.188-0.362,4.2
		l-17.577,10.15c-1.754,1.013-3.113,0.186-3.021-1.837L208.412,394.835z"/>
</g>
<circle fill="#E7C4B1" cx="-150.527" cy="298.068" r="3.97"/>
<circle fill="#E7C4B1" cx="-124.237" cy="404.778" r="5.982"/>
<circle fill="#9FD4E4" cx="-9.186" cy="418.584" r="6.098"/>
<circle fill="#F2DAA7" cx="20.267" cy="264.07" r="3.912"/>
<circle fill="#F2DAA7" cx="128.876" cy="415.019" r="3.912"/>
<circle fill="#E7C4B1" cx="65.54" cy="312.91" r="5.004"/>
<circle fill="#E7C4B1" cx="241.972" cy="316.304" r="4.141"/>
<circle fill="#E7C4B1" cx="289.258" cy="397.3" r="4.372"/>
<circle fill="#9FD4E4" cx="361.683" cy="387.693" r="5.235"/>
<circle fill="#C6BFD7" cx="402.181" cy="339.716" r="6.96"/>
<circle fill="#C6BFD7" cx="186.837" cy="352.635" r="5.152"/>
<circle fill="#E7C3AE" cx="449.238" cy="387.003" r="4.429"/>
<circle fill="#E7C3AE" cx="526.84" cy="455.632" r="4.027"/>
<circle fill="#C6BFD7" cx="281.55" cy="527.538" r="4.487"/>
<circle fill="#E7C4B1" cx="195.779" cy="508.843" r="5.695"/>
<circle fill="#E7C4B1" cx="-40.653" cy="517.931" r="4.085"/>
<path fill="#E7C4B1" d="M-113.422,527.425c0,2.983-2.421,5.406-5.407,5.406c-2.986,0-5.408-2.423-5.408-5.406
	c0-2.989,2.421-5.409,5.408-5.409C-115.844,522.016-113.422,524.436-113.422,527.425z"/>
<path fill="none" stroke="#C6BFD7" stroke-width="4.6021" stroke-miterlimit="10" d="M-181.878,460.809
	c1.397,0.204,3.63-0.293,4.833,0.601c1.107,0.825,1.094,3.193,1.037,4.461c-0.159,3.511-1.812,6.856-1.984,10.354
	c-0.103,2.092,2.516,2.228,4.033,1.148c1.792-1.276,2.291-2.964,4.609-2.988c2.08-0.021,5.08-0.231,5.655,2.204
	c0.651,2.76-0.354,5.277-1.15,7.883c-0.63,2.058-1.15,4.119-1.272,6.261c-0.19,3.292,1.697,2.717,4.391,2.631
	c3.597-0.115,4.063,2.958,5.043,5.642"/>
<path fill="none" stroke="#E7C4B1" stroke-width="4.6021" stroke-miterlimit="10" d="M-1.938,489.227
	c1.641-0.005,2.724-0.109,3.658-1.611c0.994-1.594,1.499-3.411,1.52-5.287c0.023-2.176-0.376-4.521,0.925-6.466
	c1.035-1.551,2.516-2.434,4.342-1.825c1.009,0.337,1.422,1.042,2.229,1.614c0.84,0.6,1.737,0.815,2.514,1.526
	c1.187,1.088,1.82,2.385,2.877,3.534c2.811,3.059,4.526-3.53,4.601-5.552c0.069-1.83-0.605-8.241,2.072-8.6
	c2.048-0.273,3.926,3.208,5.982,3.481c2.635,0.348,4.834-4.396,5.516-6.356c0.422-1.211,0.905-2.406,1.297-3.619
	c0.379-1.172,0.619-2.68,1.471-3.639c0.928-1.043,2.263-0.912,3.565-0.911c2.007,0.001,3.881,0.062,5.729,0.944
	c1.304,0.626,2.472,1.923,3.937,2.161"/>
<path fill="none" stroke="#E7C4B1" stroke-width="4.6021" stroke-miterlimit="10" d="M-129.07,363.935
	c1.031-1.949,1.126-5.868,1.791-8.288c0.699-2.547,1.494-4.941,2.638-7.358c0.82-1.73,1.94-4.338,4.136-4.55
	c1.608-0.155,4.349,1.511,5.983,2.064c1.683,0.567,4.31,2.235,5.881,1.058c1.391-1.042,1.6-4.192,1.886-5.706
	c0.609-3.234,0.358-11.266,4.16-12.834c1.465-0.605,2.956,1.154,4.833,1.845c2.563,0.945,2.928,0.529,4.819-1.438"/>
<path fill="none" stroke="#F2DAA7" stroke-width="4.6021" stroke-miterlimit="10" d="M96.432,329.65
	c0.834,1.744,1.101,4.449,2.709,5.59c1.968,1.398,4,0.235,5.556-1.249c2.303-2.191,7.631-12.06,12.224-9.651
	c2.542,1.332,3.359,9.587,7.411,7.909c4.28-1.773,3.951-10.39,7.316-13.379c4.508-4.005,4.235,4.712,8.272,4.795"/>
<path fill="none" stroke="#E7C4B1" stroke-width="4.6021" stroke-miterlimit="10" d="M397.177,516.264
	c0.435-3.154,0.399-7.653,0.702-11.23c0.11-1.282-0.118-3.452,0.888-4.422c2.662-2.563,7.694,2.496,9.282,4.372
	c1.347,1.59,2.172,5.271,4.544,5.48c3.087,0.271,3.49-4.333,4.13-6.396c2.342-7.577,5.773,3.035,9.676,1.616
	c3.975-1.449,1.004-9.003,6.494-8.985c2.338,0.007,3.386,2.324,5.012,3.228"/>
<path fill="none" stroke="#9FD4E4" stroke-width="4.6021" stroke-miterlimit="10" d="M232.653,448.612
	c0.168,2.972-0.904,5.836-0.92,8.795c-0.007,1.205-0.141,5.384,0.967,6.128c1.251,0.844,5.438-0.902,6.852-1.116
	c3.338-0.505,6.617-1.445,9.918-2.082c2.122-0.409,5.87-1.05,6.935,0.67c1.524,2.457-0.155,5.379-0.792,7.625
	c-1.105,3.897,1.152,2.403,3.685,0.857c1.747-1.063,3.138-2.021,5.11-0.633c2.548,1.795,0.904,5.638,1.879,8.256
	c3.074,0.118,7.986-3.671,10.495-1.348c2.088,1.938,0.787,8.394,5.343,7.824"/>
<g>
	<path fill="#F2DAA7" d="M726.849,338.796c1.155,1.663,2.624,1.452,3.264-0.469l7.595-22.785c0.64-1.921-0.463-3.184-2.453-2.806
		l-19.798,3.759c-1.99,0.378-2.672,2.048-1.517,3.711L726.849,338.796z"/>
</g>
<g>
	<path fill="#E7C4B1" d="M803.557,387.349c1.123,1.685,2.91,1.652,3.972-0.072l12.566-20.42c1.062-1.724,0.28-2.978-1.735-2.784
		l-24.835,2.378c-2.016,0.193-2.746,1.729-1.623,3.415L803.557,387.349z"/>
</g>
<g>
	<path fill="#F2DAA7" d="M680.503,483.078c1.049,1.732,2.56,1.627,3.357-0.234l8.392-19.583c0.798-1.861-0.201-3.253-2.22-3.094
		l-18.667,1.474c-2.019,0.159-2.812,1.707-1.763,3.439L680.503,483.078z"/>
</g>
<g>
	<path fill="#E7C4B1" d="M855.939,498.092c-1.903-0.691-2.216-2.353-0.696-3.689l21.504-18.92c1.521-1.337,3.445-0.922,4.278,0.925
		l15.11,33.495c0.833,1.847-0.043,2.79-1.946,2.099L855.939,498.092z"/>
</g>
<g>
	<path fill="#E7C3AE" d="M1077.186,461.454c-2.008,0.263-3.081-1.079-2.384-2.98l10.128-27.648c0.696-1.901,2.137-2.048,3.202-0.325
		l14.951,24.192c1.064,1.723,0.293,3.346-1.715,3.608L1077.186,461.454z"/>
</g>
<g>
	<path fill="#E7C3AE" d="M1207.404,312.194c-0.979-1.772-0.127-3.321,1.895-3.442l15.578-0.931c2.021-0.121,2.75,1.155,1.621,2.836
		l-8.894,13.223c-1.13,1.68-2.856,1.604-3.835-0.168L1207.404,312.194z"/>
</g>
<g>
	<path fill="#9FD4E4" d="M1048.691,345.198c0.68,1.907,2.547,2.453,4.147,1.213l22.237-17.222c1.601-1.24,1.539-3.184-0.137-4.319
		l-41.125-27.864c-1.676-1.136-2.491-0.504-1.811,1.403L1048.691,345.198z"/>
</g>
<g>
	<path fill="#E7C3AE" d="M1182.069,434.495c-1.16-1.66-0.469-3.256,1.535-3.546l21.116-3.054c2.004-0.29,3.06,1.023,2.346,2.918
		l-8.357,22.197c-0.713,1.895-2.246,2.087-3.406,0.427L1182.069,434.495z"/>
</g>
<g>
	<path fill="#F2DAA7" d="M1245.205,390.374c-0.691,1.903,0.392,3.286,2.405,3.071l24.846-2.644c2.014-0.214,2.789-1.798,1.722-3.52
		l-15.627-25.221c-1.066-1.721-2.504-1.572-3.195,0.332L1245.205,390.374z"/>
</g>
<g>
	<path fill="#F2DAA7" d="M1252.344,496.314c-1.041-1.737-2.5-1.616-3.24,0.269l-10.996,27.965c-0.741,1.885,0.288,3.16,2.287,2.835
		l24.219-3.948c1.999-0.325,2.782-2.013,1.741-3.749L1252.344,496.314z"/>
</g>
<g>
	<path fill="#F2DAA7" d="M1305.107,323.379c-2.018,0.168-2.849,1.746-1.847,3.505l11.753,20.636c1.002,1.76,2.222,1.591,2.71-0.374
		l5.411-21.772c0.488-1.965-0.764-3.435-2.781-3.267L1305.107,323.379z"/>
</g>
<g>
	<path fill="#F2DAA7" d="M1101.578,272.842c-0.365,1.992,0.947,3.231,2.915,2.754l26.72-6.477c1.968-0.477,2.542-2.16,1.274-3.739
		l-21.743-27.106c-1.267-1.58-2.603-1.243-2.967,0.749L1101.578,272.842z"/>
</g>
<g>
	<path fill="#F2DAA7" d="M974.436,278.796c1.056,1.728,2.535,1.604,3.287-0.277l10.953-27.382c0.752-1.88-0.28-3.245-2.294-3.033
		l-25.185,2.651c-2.014,0.212-2.798,1.799-1.742,3.527L974.436,278.796z"/>
</g>
<g>
	<path fill="#9FD4E4" d="M828.816,272.994c1.308,1.546,2.184,1.154,2.184-0.871v-16.567c0-2.025-1.341-3.059-3.218-2.298
		l-8.152,3.344c-1.877,0.761-2.391,2.648-1.083,4.194L828.816,272.994z"/>
</g>
<g>
	<path fill="#9FD4E4" d="M616.987,270.16c-1.846,0.832-2.717-0.015-1.936-1.883l7.18-17.161c0.781-1.868,3.065-3.195,5.075-2.948
		l26.577,3.259c2.01,0.247,2.144,1.129,0.298,1.961L616.987,270.16z"/>
</g>
<g>
	<path fill="#F2DAA7" d="M580.78,321.802c-1.027-1.195-9.417,23.379-9.417,23.379c-0.654,1.917-2.142,2.129-3.307,0.472
		l-13.562-19.296c-1.164-1.657-0.462-3.102,1.56-3.212L580.78,321.802z"/>
</g>
<g>
	<path fill="#C6BFD7" d="M690.021,372c2.025,0,2.679,1.083,1.454,2.695l-8.548,11.129c-1.225,1.612-3.121,1.477-4.212-0.229
		l-6.98-10.701c-1.091-1.706-0.328-2.895,1.697-2.895H690.021z"/>
</g>
<g>
	<path fill="#C6BFD7" d="M955.103,394.835c0.092-2.022,1.439-2.616,2.994-1.319l16.816,14.033c1.555,1.298,1.392,3.188-0.362,4.2
		l-17.578,10.15c-1.754,1.013-3.113,0.186-3.021-1.837L955.103,394.835z"/>
</g>
<circle fill="#E7C4B1" cx="596.164" cy="298.068" r="3.97"/>
<circle fill="#E7C4B1" cx="622.455" cy="404.778" r="5.982"/>
<circle fill="#9FD4E4" cx="737.507" cy="418.584" r="6.099"/>
<circle fill="#F2DAA7" cx="766.961" cy="264.07" r="3.912"/>
<circle fill="#F2DAA7" cx="875.567" cy="415.019" r="3.913"/>
<circle fill="#E7C4B1" cx="812.233" cy="312.91" r="5.004"/>
<circle fill="#E7C4B1" cx="988.664" cy="316.304" r="4.141"/>
<circle fill="#E7C4B1" cx="1035.95" cy="397.3" r="4.371"/>
<circle fill="#9FD4E4" cx="1108.376" cy="387.693" r="5.235"/>
<circle fill="#C6BFD7" cx="1148.874" cy="339.716" r="6.961"/>
<path fill="#C6BFD7" d="M938.683,352.635c0,2.846-2.307,5.152-5.154,5.152c-2.843,0-5.152-2.307-5.152-5.152
	c0-2.847,2.309-5.152,5.152-5.152C936.375,347.483,938.683,349.788,938.683,352.635z"/>
<circle fill="#E7C3AE" cx="1195.931" cy="387.003" r="4.43"/>
<circle fill="#E7C3AE" cx="1273.532" cy="455.632" r="4.027"/>
<circle fill="#C6BFD7" cx="1028.243" cy="527.538" r="4.488"/>
<circle fill="#E7C4B1" cx="942.471" cy="508.843" r="5.695"/>
<circle fill="#E7C4B1" cx="706.04" cy="517.931" r="4.085"/>
<path fill="#E7C4B1" d="M633.27,527.425c0,2.983-2.422,5.406-5.407,5.406c-2.986,0-5.409-2.423-5.409-5.406
	c0-2.989,2.423-5.409,5.409-5.409C630.848,522.016,633.27,524.436,633.27,527.425z"/>
<path fill="none" stroke="#C6BFD7" stroke-width="4.6021" stroke-miterlimit="10" d="M564.814,460.809
	c1.397,0.204,3.628-0.293,4.832,0.601c1.107,0.825,1.093,3.193,1.039,4.461c-0.161,3.511-1.814,6.856-1.986,10.354
	c-0.102,2.092,2.517,2.228,4.032,1.148c1.794-1.276,2.293-2.964,4.611-2.988c2.081-0.021,5.079-0.231,5.655,2.204
	c0.652,2.76-0.354,5.277-1.151,7.883c-0.628,2.058-1.147,4.119-1.271,6.261c-0.188,3.292,1.698,2.717,4.393,2.631
	c3.597-0.115,4.064,2.958,5.042,5.642"/>
<path fill="none" stroke="#E7C4B1" stroke-width="4.6021" stroke-miterlimit="10" d="M744.754,489.227
	c1.64-0.005,2.724-0.109,3.659-1.611c0.994-1.594,1.498-3.411,1.519-5.287c0.023-2.176-0.378-4.521,0.923-6.466
	c1.034-1.551,2.518-2.434,4.343-1.825c1.009,0.337,1.422,1.042,2.228,1.614c0.841,0.6,1.739,0.815,2.515,1.526
	c1.188,1.088,1.818,2.385,2.875,3.534c2.813,3.059,4.527-3.53,4.602-5.552c0.07-1.83-0.605-8.241,2.071-8.6
	c2.047-0.273,3.926,3.208,5.985,3.481c2.633,0.348,4.833-4.396,5.513-6.356c0.424-1.211,0.907-2.406,1.3-3.619
	c0.378-1.172,0.616-2.68,1.469-3.639c0.928-1.043,2.263-0.912,3.565-0.911c2.009,0.001,3.881,0.062,5.729,0.944
	c1.302,0.626,2.47,1.923,3.936,2.161"/>
<path fill="none" stroke="#E7C4B1" stroke-width="4.6021" stroke-miterlimit="10" d="M617.623,363.935
	c1.028-1.949,1.124-5.868,1.789-8.288c0.7-2.547,1.494-4.941,2.64-7.358c0.819-1.73,1.938-4.338,4.134-4.55
	c1.606-0.155,4.35,1.511,5.985,2.064c1.682,0.567,4.308,2.235,5.88,1.058c1.389-1.042,1.599-4.192,1.886-5.706
	c0.609-3.234,0.357-11.266,4.16-12.834c1.464-0.605,2.955,1.154,4.83,1.845c2.565,0.945,2.931,0.529,4.821-1.438"/>
<path fill="none" stroke="#F2DAA7" stroke-width="4.6021" stroke-miterlimit="10" d="M843.123,329.65
	c0.836,1.744,1.103,4.449,2.709,5.59c1.966,1.398,4.001,0.235,5.558-1.249c2.303-2.191,7.629-12.06,12.224-9.651
	c2.541,1.332,3.358,9.587,7.409,7.909c4.28-1.773,3.95-10.39,7.316-13.379c4.507-4.005,4.236,4.712,8.274,4.795"/>
<path fill="none" stroke="#E7C4B1" stroke-width="4.6021" stroke-miterlimit="10" d="M1143.868,516.264
	c0.436-3.154,0.399-7.653,0.704-11.23c0.109-1.282-0.12-3.452,0.888-4.422c2.662-2.563,7.696,2.496,9.282,4.372
	c1.346,1.59,2.169,5.271,4.544,5.48c3.086,0.271,3.49-4.333,4.127-6.396c2.343-7.577,5.775,3.035,9.677,1.616
	c3.976-1.449,1.005-9.003,6.495-8.985c2.338,0.007,3.388,2.324,5.013,3.228"/>
<path fill="none" stroke="#9FD4E4" stroke-width="4.6021" stroke-miterlimit="10" d="M979.346,448.612
	c0.167,2.972-0.904,5.836-0.92,8.795c-0.009,1.205-0.14,5.384,0.966,6.128c1.252,0.844,5.438-0.902,6.853-1.116
	c3.337-0.505,6.616-1.445,9.917-2.082c2.12-0.409,5.87-1.05,6.935,0.67c1.525,2.457-0.155,5.379-0.79,7.625
	c-1.106,3.897,1.151,2.403,3.683,0.857c1.748-1.063,3.139-2.021,5.109-0.633c2.548,1.795,0.905,5.638,1.881,8.256
	c3.076,0.118,7.986-3.671,10.495-1.348c2.089,1.938,0.789,8.394,5.344,7.824"/>
<g>
	<path fill="#F2DAA7" d="M-19.845,46.801c1.155,1.663,2.624,1.452,3.265-0.469l7.595-22.785c0.641-1.921-0.463-3.184-2.453-2.806
		l-19.8,3.76c-1.99,0.378-2.672,2.048-1.517,3.711L-19.845,46.801z"/>
</g>
<g>
	<path fill="#E7C4B1" d="M56.864,95.353c1.123,1.685,2.91,1.652,3.972-0.072l12.566-20.42c1.062-1.724,0.28-2.978-1.735-2.784
		l-24.836,2.378c-2.016,0.193-2.746,1.729-1.623,3.415L56.864,95.353z"/>
</g>
<g>
	<path fill="#F2DAA7" d="M-66.189,191.082c1.049,1.732,2.56,1.626,3.357-0.235l8.392-19.582c0.798-1.861-0.201-3.253-2.22-3.094
		l-18.666,1.474c-2.019,0.16-2.812,1.707-1.763,3.439L-66.189,191.082z"/>
</g>
<g>
	<path fill="#E7C4B1" d="M109.247,206.097c-1.903-0.692-2.216-2.353-0.696-3.69l21.505-18.92c1.52-1.337,3.445-0.921,4.278,0.924
		l15.108,33.497c0.833,1.846-0.043,2.79-1.946,2.098L109.247,206.097z"/>
</g>
<g>
	<path fill="#E7C3AE" d="M330.493,169.459c-2.008,0.262-3.081-1.08-2.384-2.981l10.128-27.647c0.697-1.901,2.138-2.048,3.202-0.325
		l14.951,24.191c1.064,1.723,0.293,3.346-1.715,3.608L330.493,169.459z"/>
</g>
<g>
	<path fill="#E7C3AE" d="M460.713,20.198c-0.979-1.772-0.126-3.321,1.895-3.442l15.577-0.93c2.021-0.121,2.75,1.155,1.621,2.835
		l-8.896,13.223c-1.13,1.68-2.855,1.604-3.835-0.168L460.713,20.198z"/>
</g>
<g>
	<path fill="#9FD4E4" d="M301.999,53.203c0.68,1.907,2.547,2.453,4.147,1.213l22.239-17.223c1.601-1.24,1.539-3.184-0.137-4.319
		L287.121,5.011c-1.676-1.136-2.491-0.504-1.811,1.403L301.999,53.203z"/>
</g>
<g>
	<path fill="#E7C3AE" d="M435.377,142.499c-1.16-1.66-0.469-3.255,1.535-3.545l21.115-3.053c2.004-0.29,3.06,1.023,2.347,2.919
		l-8.356,22.195c-0.713,1.896-2.246,2.088-3.405,0.428L435.377,142.499z"/>
</g>
<g>
	<path fill="#F2DAA7" d="M498.513,98.379c-0.69,1.903,0.392,3.286,2.406,3.071l24.845-2.644c2.014-0.214,2.789-1.798,1.722-3.519
		l-15.627-25.222c-1.066-1.721-2.504-1.572-3.194,0.332L498.513,98.379z"/>
</g>
<g>
	<path fill="#F2DAA7" d="M505.652,204.319c-1.042-1.737-2.5-1.616-3.24,0.269l-10.996,27.967c-0.741,1.884,0.288,3.16,2.287,2.834
		l24.217-3.949c1.999-0.326,2.782-2.013,1.741-3.75L505.652,204.319z"/>
</g>
<g>
	<path fill="#F2DAA7" d="M558.415,31.384c-2.018,0.168-2.849,1.746-1.847,3.505l11.753,20.636c1.002,1.76,2.222,1.591,2.71-0.374
		l5.412-21.772c0.488-1.965-0.763-3.435-2.781-3.267L558.415,31.384z"/>
</g>
<g>
	<path fill="#F2DAA7" d="M354.886-19.153c-0.365,1.992,0.946,3.231,2.915,2.754l26.72-6.478c1.968-0.477,2.542-2.16,1.274-3.739
		l-21.744-27.106c-1.267-1.58-2.603-1.243-2.967,0.75L354.886-19.153z"/>
</g>
<g>
	<path fill="#F2DAA7" d="M227.743-13.199c1.056,1.728,2.535,1.604,3.287-0.277l10.954-27.381c0.752-1.88-0.28-3.245-2.294-3.033
		l-25.185,2.651c-2.014,0.212-2.798,1.799-1.742,3.527L227.743-13.199z"/>
</g>
<g>
	<path fill="#9FD4E4" d="M82.471-19.001C83.778-17.455,85-17.847,85-19.872v-16.567c0-2.025-1.688-3.059-3.564-2.298l-8.325,3.344
		c-1.876,0.761-2.304,2.648-0.997,4.194L82.471-19.001z"/>
</g>
<g>
	<path fill="#9FD4E4" d="M-129.706-21.835c-1.846,0.832-2.716-0.015-1.935-1.883l7.18-17.161c0.781-1.868,3.065-3.195,5.075-2.948
		l26.577,3.258c2.01,0.247,2.144,1.129,0.298,1.961L-129.706-21.835z"/>
</g>
<g>
	<path fill="#F2DAA7" d="M-165.913,29.807c-1.026-1.195-9.418,23.38-9.418,23.38c-0.654,1.916-2.143,2.128-3.307,0.472
		l-13.561-19.297c-1.164-1.657-0.462-3.102,1.56-3.212L-165.913,29.807z"/>
</g>
<g>
	<path fill="#C6BFD7" d="M-56.672,80c2.025,0,2.679,1.085,1.454,2.697l-8.547,11.13c-1.225,1.612-3.121,1.478-4.212-0.228
		l-6.98-10.703C-76.049,81.191-75.285,80-73.26,80H-56.672z"/>
</g>
<g>
	<path fill="#C6BFD7" d="M208.412,102.839c0.092-2.023,1.44-2.616,2.995-1.319l16.814,14.034c1.555,1.297,1.392,3.188-0.362,4.2
		l-17.577,10.15c-1.754,1.012-3.113,0.186-3.021-1.837L208.412,102.839z"/>
</g>
<circle fill="#E7C4B1" cx="-150.527" cy="6.072" r="3.97"/>
<circle fill="#E7C4B1" cx="-124.237" cy="112.783" r="5.982"/>
<circle fill="#9FD4E4" cx="-9.186" cy="126.588" r="6.098"/>
<circle fill="#F2DAA7" cx="20.267" cy="-27.925" r="3.912"/>
<circle fill="#F2DAA7" cx="128.876" cy="123.023" r="3.912"/>
<circle fill="#E7C4B1" cx="65.54" cy="20.915" r="5.004"/>
<circle fill="#E7C4B1" cx="241.972" cy="24.309" r="4.141"/>
<circle fill="#E7C4B1" cx="289.258" cy="105.305" r="4.372"/>
<circle fill="#9FD4E4" cx="361.683" cy="95.698" r="5.235"/>
<circle fill="#C6BFD7" cx="402.181" cy="47.721" r="6.96"/>
<circle fill="#C6BFD7" cx="186.837" cy="60.64" r="5.152"/>
<circle fill="#E7C3AE" cx="449.238" cy="95.007" r="4.429"/>
<circle fill="#E7C3AE" cx="526.84" cy="163.636" r="4.027"/>
<path fill="#C6BFD7" d="M286.038,235.542c0,2.478-2.011,4.488-4.488,4.488c-2.478,0-4.487-2.01-4.487-4.488
	c0-2.476,2.009-4.485,4.487-4.485C284.027,231.057,286.038,233.067,286.038,235.542z"/>
<circle fill="#E7C4B1" cx="195.779" cy="216.847" r="5.695"/>
<circle fill="#E7C4B1" cx="-40.653" cy="225.936" r="4.085"/>
<circle fill="#E7C4B1" cx="-118.83" cy="235.428" r="5.407"/>
<path fill="none" stroke="#C6BFD7" stroke-width="4.6021" stroke-miterlimit="10" d="M-181.878,168.814
	c1.397,0.205,3.63-0.294,4.833,0.6c1.107,0.826,1.094,3.193,1.037,4.462c-0.159,3.511-1.812,6.855-1.984,10.355
	c-0.103,2.092,2.516,2.227,4.033,1.147c1.792-1.277,2.291-2.963,4.609-2.988c2.08-0.021,5.08-0.231,5.655,2.205
	c0.651,2.759-0.354,5.278-1.15,7.883c-0.63,2.058-1.15,4.119-1.272,6.261c-0.19,3.291,1.697,2.716,4.391,2.63
	c3.597-0.115,4.063,2.958,5.043,5.644"/>
<path fill="none" stroke="#E7C4B1" stroke-width="4.6021" stroke-miterlimit="10" d="M-1.938,197.231
	c1.641-0.005,2.724-0.109,3.658-1.61c0.994-1.595,1.499-3.412,1.52-5.287c0.023-2.177-0.376-4.522,0.925-6.467
	c1.035-1.55,2.516-2.434,4.342-1.825c1.009,0.337,1.422,1.042,2.229,1.614c0.84,0.6,1.737,0.815,2.514,1.527
	c1.187,1.087,1.82,2.384,2.877,3.534c2.811,3.058,4.526-3.53,4.601-5.553c0.069-1.829-0.605-8.24,2.072-8.598
	c2.048-0.273,3.926,3.208,5.982,3.48c2.635,0.348,4.834-4.396,5.516-6.357c0.422-1.209,0.905-2.405,1.297-3.619
	c0.379-1.171,0.619-2.68,1.471-3.639c0.928-1.042,2.263-0.913,3.565-0.911c2.007,0.002,3.881,0.061,5.729,0.945
	c1.304,0.626,2.472,1.922,3.937,2.161"/>
<path fill="none" stroke="#E7C4B1" stroke-width="4.6021" stroke-miterlimit="10" d="M-129.07,71.94
	c1.031-1.95,1.126-5.868,1.791-8.289c0.699-2.547,1.494-4.941,2.638-7.358c0.82-1.729,1.94-4.339,4.136-4.549
	c1.608-0.155,4.349,1.511,5.983,2.064c1.683,0.568,4.31,2.235,5.881,1.058c1.391-1.042,1.6-4.192,1.886-5.707
	c0.609-3.234,0.358-11.265,4.16-12.833c1.465-0.605,2.956,1.154,4.833,1.845c2.563,0.944,2.928,0.529,4.819-1.438"/>
<path fill="none" stroke="#F2DAA7" stroke-width="4.6021" stroke-miterlimit="10" d="M96.432,37.654
	c0.834,1.745,1.101,4.45,2.709,5.591c1.968,1.398,4,0.235,5.556-1.249c2.303-2.191,7.631-12.059,12.224-9.651
	c2.542,1.333,3.359,9.588,7.411,7.909c4.28-1.773,3.951-10.389,7.316-13.379c4.508-4.004,4.235,4.712,8.272,4.796"/>
<path fill="none" stroke="#E7C4B1" stroke-width="4.6021" stroke-miterlimit="10" d="M397.177,224.268
	c0.435-3.153,0.399-7.651,0.702-11.229c0.11-1.281-0.118-3.453,0.888-4.422c2.662-2.564,7.694,2.496,9.282,4.372
	c1.347,1.591,2.172,5.272,4.544,5.481c3.087,0.271,3.49-4.333,4.13-6.396c2.342-7.578,5.773,3.035,9.676,1.616
	c3.975-1.448,1.004-9.002,6.494-8.985c2.338,0.007,3.386,2.325,5.012,3.227"/>
<path fill="none" stroke="#9FD4E4" stroke-width="4.6021" stroke-miterlimit="10" d="M232.653,156.618
	c0.168,2.971-0.904,5.835-0.92,8.794c-0.007,1.205-0.141,5.383,0.967,6.128c1.251,0.843,5.438-0.902,6.852-1.117
	c3.338-0.505,6.617-1.446,9.918-2.082c2.122-0.41,5.87-1.05,6.935,0.669c1.524,2.458-0.155,5.38-0.792,7.625
	c-1.105,3.898,1.152,2.403,3.685,0.858c1.747-1.063,3.138-2.021,5.11-0.632c2.548,1.794,0.904,5.638,1.879,8.254
	c3.074,0.118,7.986-3.669,10.495-1.347c2.088,1.937,0.787,8.394,5.343,7.825"/>
<g>
	<path fill="#F2DAA7" d="M726.849,46.801c1.155,1.663,2.624,1.452,3.264-0.469l7.595-22.785c0.64-1.921-0.463-3.184-2.453-2.806
		l-19.798,3.76c-1.99,0.378-2.672,2.048-1.517,3.711L726.849,46.801z"/>
</g>
<g>
	<path fill="#E7C4B1" d="M803.557,95.353c1.123,1.685,2.91,1.652,3.972-0.072l12.566-20.42c1.062-1.724,0.28-2.978-1.735-2.784
		l-24.835,2.378c-2.016,0.193-2.746,1.729-1.623,3.415L803.557,95.353z"/>
</g>
<g>
	<path fill="#F2DAA7" d="M680.503,191.082c1.049,1.732,2.56,1.626,3.357-0.235l8.392-19.582c0.798-1.861-0.201-3.253-2.22-3.094
		l-18.667,1.474c-2.019,0.16-2.812,1.707-1.763,3.439L680.503,191.082z"/>
</g>
<g>
	<path fill="#E7C4B1" d="M855.939,206.097c-1.903-0.692-2.216-2.353-0.696-3.69l21.504-18.92c1.521-1.337,3.445-0.921,4.278,0.924
		l15.11,33.497c0.833,1.846-0.043,2.79-1.946,2.098L855.939,206.097z"/>
</g>
<g>
	<path fill="#E7C3AE" d="M1077.186,169.459c-2.008,0.262-3.081-1.08-2.384-2.981l10.127-27.647c0.697-1.901,2.138-2.048,3.202-0.325
		l14.951,24.191c1.064,1.723,0.293,3.346-1.715,3.608L1077.186,169.459z"/>
</g>
<g>
	<path fill="#E7C3AE" d="M1207.404,20.198c-0.979-1.772-0.126-3.321,1.895-3.442l15.578-0.93c2.021-0.121,2.75,1.155,1.621,2.836
		l-8.894,13.222c-1.13,1.681-2.856,1.605-3.835-0.167L1207.404,20.198z"/>
</g>
<g>
	<path fill="#9FD4E4" d="M1048.691,53.203c0.68,1.907,2.547,2.453,4.147,1.213l22.237-17.223c1.601-1.24,1.539-3.184-0.137-4.319
		l-41.125-27.864c-1.676-1.136-2.491-0.504-1.811,1.403L1048.691,53.203z"/>
</g>
<g>
	<path fill="#E7C3AE" d="M1182.069,142.499c-1.16-1.66-0.469-3.255,1.535-3.545l21.116-3.053c2.004-0.29,3.06,1.023,2.346,2.918
		l-8.357,22.196c-0.713,1.895-2.246,2.087-3.406,0.427L1182.069,142.499z"/>
</g>
<g>
	<path fill="#F2DAA7" d="M1245.205,98.379c-0.691,1.903,0.392,3.286,2.405,3.071l24.846-2.644c2.014-0.214,2.789-1.798,1.722-3.519
		l-15.627-25.222c-1.066-1.721-2.504-1.572-3.195,0.332L1245.205,98.379z"/>
</g>
<g>
	<path fill="#F2DAA7" d="M1252.344,204.319c-1.041-1.737-2.5-1.616-3.24,0.269l-10.996,27.967c-0.741,1.884,0.288,3.16,2.287,2.834
		l24.219-3.949c1.999-0.326,2.782-2.013,1.741-3.75L1252.344,204.319z"/>
</g>
<g>
	<path fill="#F2DAA7" d="M1305.107,31.384c-2.018,0.168-2.849,1.746-1.847,3.505l11.753,20.636c1.002,1.76,2.222,1.591,2.71-0.374
		l5.411-21.772c0.488-1.965-0.764-3.435-2.781-3.267L1305.107,31.384z"/>
</g>
<g>
	<path fill="#F2DAA7" d="M1101.578-19.153c-0.365,1.992,0.947,3.231,2.915,2.754l26.72-6.478c1.968-0.477,2.542-2.16,1.274-3.739
		l-21.743-27.106c-1.267-1.58-2.603-1.243-2.967,0.749L1101.578-19.153z"/>
</g>
<g>
	<path fill="#F2DAA7" d="M974.436-13.199c1.056,1.728,2.535,1.604,3.287-0.277l10.953-27.381c0.752-1.88-0.28-3.245-2.294-3.033
		l-25.185,2.651c-2.014,0.212-2.798,1.799-1.742,3.527L974.436-13.199z"/>
</g>
<g>
	<path fill="#9FD4E4" d="M828.816-19.001c1.308,1.546,2.184,1.154,2.184-0.871v-16.567c0-2.025-1.341-3.059-3.218-2.298
		l-8.152,3.344c-1.877,0.761-2.391,2.648-1.083,4.194L828.816-19.001z"/>
</g>
<g>
	<path fill="#9FD4E4" d="M616.987-21.835c-1.846,0.832-2.717-0.015-1.936-1.883l7.18-17.161c0.781-1.868,3.065-3.195,5.075-2.948
		l26.577,3.258c2.01,0.247,2.144,1.129,0.298,1.961L616.987-21.835z"/>
</g>
<g>
	<path fill="#F2DAA7" d="M580.78,29.807c-1.027-1.195-9.417,23.379-9.417,23.379c-0.654,1.917-2.142,2.129-3.306,0.472
		l-13.562-19.297c-1.164-1.657-0.462-3.102,1.56-3.212L580.78,29.807z"/>
</g>
<g>
	<path fill="#C6BFD7" d="M690.021,80c2.025,0,2.679,1.085,1.454,2.697l-8.548,11.13c-1.225,1.612-3.121,1.478-4.212-0.228
		l-6.98-10.703c-1.091-1.706-0.328-2.896,1.697-2.896H690.021z"/>
</g>
<g>
	<path fill="#C6BFD7" d="M955.103,102.839c0.092-2.023,1.439-2.616,2.994-1.319l16.816,14.034c1.555,1.297,1.392,3.188-0.362,4.2
		l-17.578,10.15c-1.754,1.012-3.113,0.186-3.021-1.837L955.103,102.839z"/>
</g>
<circle fill="#E7C4B1" cx="596.164" cy="6.072" r="3.97"/>
<circle fill="#E7C4B1" cx="622.455" cy="112.783" r="5.982"/>
<circle fill="#9FD4E4" cx="737.507" cy="126.588" r="6.099"/>
<circle fill="#F2DAA7" cx="766.961" cy="-27.925" r="3.912"/>
<circle fill="#F2DAA7" cx="875.567" cy="123.023" r="3.913"/>
<circle fill="#E7C4B1" cx="812.233" cy="20.915" r="5.004"/>
<circle fill="#E7C4B1" cx="988.664" cy="24.309" r="4.141"/>
<circle fill="#E7C4B1" cx="1035.95" cy="105.305" r="4.371"/>
<circle fill="#9FD4E4" cx="1108.376" cy="95.698" r="5.235"/>
<circle fill="#C6BFD7" cx="1148.874" cy="47.721" r="6.961"/>
<path fill="#C6BFD7" d="M938.683,60.64c0,2.846-2.307,5.152-5.154,5.152c-2.843,0-5.152-2.307-5.152-5.152
	c0-2.847,2.309-5.152,5.152-5.152C936.375,55.488,938.683,57.793,938.683,60.64z"/>
<circle fill="#E7C3AE" cx="1195.931" cy="95.007" r="4.43"/>
<circle fill="#E7C3AE" cx="1273.532" cy="163.636" r="4.027"/>
<path fill="#C6BFD7" d="M1032.731,235.542c0,2.478-2.01,4.488-4.488,4.488c-2.479,0-4.489-2.01-4.489-4.488
	c0-2.476,2.01-4.485,4.489-4.485C1030.721,231.057,1032.731,233.067,1032.731,235.542z"/>
<circle fill="#E7C4B1" cx="942.471" cy="216.847" r="5.695"/>
<circle fill="#E7C4B1" cx="706.04" cy="225.936" r="4.085"/>
<path fill="none" stroke="#C6BFD7" stroke-width="4.6021" stroke-miterlimit="10" d="M564.814,168.814
	c1.397,0.205,3.628-0.294,4.832,0.6c1.107,0.826,1.093,3.193,1.039,4.462c-0.161,3.511-1.814,6.855-1.986,10.355
	c-0.102,2.092,2.517,2.227,4.032,1.147c1.794-1.277,2.293-2.963,4.611-2.988c2.081-0.021,5.079-0.231,5.655,2.205
	c0.652,2.759-0.354,5.278-1.151,7.883c-0.628,2.058-1.147,4.119-1.271,6.261c-0.188,3.291,1.698,2.716,4.393,2.63
	c3.597-0.115,4.064,2.958,5.042,5.644"/>
<path fill="none" stroke="#E7C4B1" stroke-width="4.6021" stroke-miterlimit="10" d="M744.754,197.231
	c1.64-0.005,2.724-0.109,3.659-1.61c0.994-1.595,1.498-3.412,1.519-5.287c0.023-2.177-0.378-4.522,0.923-6.467
	c1.034-1.55,2.518-2.434,4.343-1.825c1.009,0.337,1.422,1.042,2.228,1.614c0.841,0.6,1.739,0.815,2.515,1.527
	c1.188,1.087,1.818,2.384,2.875,3.534c2.813,3.058,4.527-3.53,4.602-5.553c0.07-1.829-0.605-8.24,2.071-8.598
	c2.047-0.273,3.926,3.208,5.985,3.48c2.633,0.348,4.833-4.396,5.513-6.357c0.424-1.209,0.907-2.405,1.3-3.619
	c0.378-1.171,0.616-2.68,1.469-3.639c0.928-1.042,2.263-0.913,3.565-0.911c2.009,0.002,3.881,0.061,5.729,0.945
	c1.302,0.626,2.47,1.922,3.936,2.161"/>
<path fill="none" stroke="#E7C4B1" stroke-width="4.6021" stroke-miterlimit="10" d="M617.623,71.94
	c1.028-1.95,1.124-5.868,1.789-8.289c0.7-2.547,1.494-4.941,2.64-7.358c0.819-1.729,1.938-4.339,4.134-4.549
	c1.606-0.155,4.35,1.511,5.985,2.064c1.682,0.568,4.308,2.235,5.88,1.058c1.389-1.042,1.599-4.192,1.886-5.707
	c0.609-3.234,0.357-11.265,4.16-12.833c1.464-0.605,2.955,1.154,4.83,1.845c2.565,0.944,2.931,0.529,4.821-1.438"/>
<path fill="none" stroke="#F2DAA7" stroke-width="4.6021" stroke-miterlimit="10" d="M843.123,37.654
	c0.836,1.745,1.103,4.45,2.709,5.591c1.966,1.398,4.001,0.235,5.558-1.249c2.303-2.191,7.629-12.059,12.224-9.651
	c2.541,1.333,3.358,9.588,7.409,7.909c4.28-1.773,3.95-10.389,7.316-13.379c4.507-4.004,4.236,4.712,8.274,4.796"/>
<path fill="none" stroke="#E7C4B1" stroke-width="4.6021" stroke-miterlimit="10" d="M1143.868,224.268
	c0.436-3.153,0.399-7.651,0.704-11.229c0.109-1.281-0.12-3.453,0.888-4.422c2.662-2.564,7.696,2.496,9.282,4.372
	c1.346,1.591,2.169,5.272,4.544,5.481c3.086,0.271,3.49-4.333,4.127-6.396c2.343-7.578,5.775,3.035,9.677,1.616
	c3.976-1.448,1.005-9.002,6.495-8.985c2.338,0.007,3.388,2.325,5.013,3.227"/>
<path fill="none" stroke="#9FD4E4" stroke-width="4.6021" stroke-miterlimit="10" d="M979.346,156.618
	c0.167,2.971-0.904,5.835-0.92,8.794c-0.009,1.205-0.14,5.383,0.966,6.128c1.252,0.843,5.438-0.902,6.853-1.117
	c3.337-0.505,6.616-1.446,9.917-2.082c2.12-0.41,5.87-1.05,6.935,0.669c1.525,2.458-0.155,5.38-0.79,7.625
	c-1.106,3.898,1.151,2.403,3.683,0.858c1.748-1.063,3.139-2.021,5.109-0.632c2.548,1.794,0.905,5.638,1.881,8.254
	c3.076,0.118,7.986-3.669,10.495-1.347c2.089,1.937,0.789,8.394,5.344,7.825"/>
<g>
	<path fill="#F2DAA7" d="M1473.828,338.796c1.155,1.663,2.625,1.452,3.265-0.469l7.596-22.785c0.64-1.921-0.464-3.184-2.453-2.806
		l-19.8,3.759c-1.989,0.378-2.672,2.048-1.518,3.711L1473.828,338.796z"/>
</g>
<g>
	<path fill="#E7C4B1" d="M1550.538,387.349c1.123,1.685,2.91,1.652,3.972-0.072l12.565-20.419c1.062-1.725,0.28-2.978-1.735-2.785
		l-24.836,2.378c-2.016,0.193-2.746,1.729-1.623,3.415L1550.538,387.349z"/>
</g>
<g>
	<path fill="#F2DAA7" d="M1427.484,483.078c1.049,1.732,2.56,1.627,3.357-0.234l8.392-19.583c0.798-1.861-0.201-3.253-2.22-3.094
		l-18.667,1.474c-2.019,0.159-2.812,1.707-1.763,3.439L1427.484,483.078z"/>
</g>
<g>
	<path fill="#E7C4B1" d="M1602.92,498.092c-1.903-0.691-2.216-2.353-0.695-3.689l21.505-18.92c1.521-1.337,3.446-0.921,4.278,0.925
		l15.106,33.495c0.833,1.846-0.043,2.79-1.946,2.099L1602.92,498.092z"/>
</g>
<g>
	<path fill="#E7C3AE" d="M1824.166,461.454c-2.008,0.263-3.08-1.079-2.384-2.98l10.128-27.648c0.697-1.901,2.138-2.048,3.202-0.325
		l14.95,24.192c1.064,1.723,0.293,3.346-1.715,3.608L1824.166,461.454z"/>
</g>
<g>
	<path fill="#E7C3AE" d="M1954.388,312.194c-0.979-1.772-0.127-3.321,1.895-3.442l15.577-0.931c2.021-0.121,2.75,1.155,1.62,2.835
		l-8.896,13.223c-1.13,1.68-2.855,1.604-3.835-0.168L1954.388,312.194z"/>
</g>
<g>
	<path fill="#9FD4E4" d="M1795.672,345.198c0.681,1.907,2.547,2.453,4.148,1.213l22.237-17.222c1.602-1.24,1.54-3.184-0.137-4.319
		l-41.127-27.864c-1.677-1.136-2.491-0.504-1.811,1.403L1795.672,345.198z"/>
</g>
<g>
	<path fill="#E7C3AE" d="M1929.05,434.494c-1.159-1.659-0.469-3.255,1.535-3.545l21.115-3.054c2.004-0.29,3.06,1.023,2.347,2.918
		l-8.356,22.197c-0.713,1.895-2.246,2.087-3.405,0.428L1929.05,434.494z"/>
</g>
<g>
	<path fill="#F2DAA7" d="M1992.187,390.374c-0.69,1.903,0.392,3.286,2.405,3.071l24.845-2.644c2.014-0.214,2.788-1.798,1.722-3.52
		l-15.625-25.221c-1.066-1.722-2.505-1.572-3.195,0.331L1992.187,390.374z"/>
</g>
<g>
	<path fill="#F2DAA7" d="M1999.325,496.314c-1.041-1.737-2.499-1.616-3.239,0.269l-10.996,27.965
		c-0.741,1.885,0.287,3.16,2.286,2.835l24.217-3.947c1.999-0.326,2.782-2.014,1.741-3.751L1999.325,496.314z"/>
</g>
<g>
	<path fill="#F2DAA7" d="M2052.088,323.379c-2.018,0.168-2.85,1.746-1.847,3.505l11.753,20.636c1.002,1.76,2.222,1.591,2.711-0.374
		l5.412-21.772c0.488-1.965-0.764-3.435-2.781-3.267L2052.088,323.379z"/>
</g>
<g>
	<path fill="#F2DAA7" d="M1848.56,272.841c-0.364,1.992,0.947,3.231,2.915,2.754l26.72-6.477c1.968-0.477,2.542-2.16,1.274-3.739
		l-21.745-27.107c-1.267-1.579-2.603-1.242-2.967,0.75L1848.56,272.841z"/>
</g>
<g>
	<path fill="#F2DAA7" d="M1721.416,278.796c1.056,1.728,2.535,1.604,3.287-0.277l10.954-27.382c0.752-1.88-0.28-3.245-2.294-3.033
		l-25.187,2.651c-2.014,0.212-2.797,1.799-1.741,3.527L1721.416,278.796z"/>
</g>
<g>
	<path fill="#9FD4E4" d="M1575.807,272.994c1.308,1.546,2.193,1.154,2.193-0.871v-16.567c0-2.025-1.351-3.059-3.228-2.298
		l-8.157,3.344c-1.877,0.761-2.389,2.648-1.081,4.194L1575.807,272.994z"/>
</g>
<g>
	<path fill="#9FD4E4" d="M1363.969,270.16c-1.846,0.832-2.717-0.015-1.936-1.883l7.18-17.161c0.781-1.868,3.065-3.195,5.075-2.948
		l26.576,3.259c2.01,0.247,2.144,1.129,0.298,1.961L1363.969,270.16z"/>
</g>
<g>
	<path fill="#F2DAA7" d="M1327.76,321.802c-1.026-1.195-9.418,23.379-9.418,23.379c-0.654,1.916-2.142,2.128-3.307,0.472
		l-13.56-19.296c-1.165-1.657-0.463-3.102,1.559-3.212L1327.76,321.802z"/>
</g>
<g>
	<path fill="#C6BFD7" d="M1437.002,372c2.025,0,2.679,1.083,1.454,2.695l-8.549,11.13c-1.225,1.611-3.12,1.476-4.212-0.229
		l-6.98-10.701c-1.092-1.706-0.328-2.895,1.697-2.895H1437.002z"/>
</g>
<g>
	<path fill="#C6BFD7" d="M1702.085,394.835c0.093-2.022,1.44-2.616,2.994-1.318l16.815,14.032c1.555,1.298,1.392,3.188-0.362,4.2
		l-17.577,10.15c-1.754,1.013-3.113,0.186-3.021-1.837L1702.085,394.835z"/>
</g>
<circle fill="#E7C4B1" cx="1343.146" cy="298.068" r="3.969"/>
<circle fill="#E7C4B1" cx="1369.436" cy="404.778" r="5.983"/>
<circle fill="#9FD4E4" cx="1484.487" cy="418.584" r="6.098"/>
<circle fill="#F2DAA7" cx="1513.94" cy="264.07" r="3.912"/>
<circle fill="#F2DAA7" cx="1622.549" cy="415.019" r="3.912"/>
<path fill="#E7C4B1" d="M1564.217,312.91c0,2.764-2.239,5.005-5.003,5.005c-2.767,0-5.005-2.241-5.005-5.005
	s2.238-5.005,5.005-5.005C1561.978,307.904,1564.217,310.146,1564.217,312.91z"/>
<circle fill="#E7C4B1" cx="1735.645" cy="316.304" r="4.141"/>
<circle fill="#E7C4B1" cx="1782.931" cy="397.3" r="4.372"/>
<circle fill="#9FD4E4" cx="1855.357" cy="387.693" r="5.235"/>
<circle fill="#C6BFD7" cx="1895.855" cy="339.716" r="6.96"/>
<path fill="#C6BFD7" d="M1685.662,352.635c0,2.846-2.306,5.152-5.152,5.152c-2.843,0-5.152-2.307-5.152-5.152
	c0-2.847,2.31-5.152,5.152-5.152C1683.356,347.483,1685.662,349.788,1685.662,352.635z"/>
<circle fill="#E7C3AE" cx="1942.911" cy="387.003" r="4.429"/>
<circle fill="#E7C3AE" cx="2020.513" cy="455.632" r="4.027"/>
<circle fill="#C6BFD7" cx="1775.224" cy="527.538" r="4.487"/>
<circle fill="#E7C4B1" cx="1689.452" cy="508.843" r="5.694"/>
<circle fill="#E7C4B1" cx="1453.021" cy="517.931" r="4.084"/>
<path fill="#E7C4B1" d="M1380.251,527.425c0,2.983-2.422,5.406-5.407,5.406c-2.987,0-5.407-2.423-5.407-5.406
	c0-2.989,2.42-5.409,5.407-5.409C1377.829,522.016,1380.251,524.436,1380.251,527.425z"/>
<path fill="none" stroke="#C6BFD7" stroke-width="4.6021" stroke-miterlimit="10" d="M1311.794,460.809
	c1.399,0.204,3.631-0.293,4.834,0.601c1.106,0.825,1.093,3.193,1.037,4.461c-0.158,3.511-1.811,6.856-1.983,10.354
	c-0.104,2.092,2.516,2.228,4.033,1.148c1.791-1.276,2.291-2.964,4.609-2.988c2.08-0.021,5.079-0.231,5.654,2.204
	c0.651,2.76-0.354,5.277-1.149,7.883c-0.631,2.058-1.15,4.119-1.271,6.261c-0.19,3.292,1.697,2.717,4.391,2.631
	c3.598-0.115,4.063,2.958,5.043,5.642"/>
<path fill="none" stroke="#E7C4B1" stroke-width="4.6021" stroke-miterlimit="10" d="M1491.735,489.227
	c1.641-0.005,2.724-0.109,3.658-1.611c0.993-1.594,1.499-3.411,1.519-5.287c0.024-2.176-0.375-4.521,0.926-6.466
	c1.034-1.551,2.516-2.434,4.343-1.825c1.009,0.337,1.422,1.042,2.228,1.614c0.841,0.6,1.737,0.815,2.515,1.526
	c1.187,1.088,1.818,2.385,2.876,3.534c2.812,3.059,4.526-3.53,4.603-5.552c0.067-1.83-0.606-8.241,2.07-8.6
	c2.048-0.273,3.926,3.208,5.983,3.481c2.635,0.348,4.833-4.396,5.515-6.356c0.423-1.211,0.906-2.406,1.298-3.619
	c0.379-1.172,0.618-2.68,1.471-3.639c0.929-1.043,2.264-0.912,3.565-0.911c2.007,0.001,3.88,0.062,5.728,0.944
	c1.305,0.626,2.473,1.923,3.938,2.161"/>
<path fill="none" stroke="#E7C4B1" stroke-width="4.6021" stroke-miterlimit="10" d="M1364.603,363.935
	c1.032-1.949,1.126-5.868,1.792-8.288c0.698-2.547,1.493-4.941,2.637-7.358c0.821-1.73,1.94-4.338,4.137-4.55
	c1.607-0.155,4.349,1.511,5.983,2.064c1.683,0.567,4.31,2.235,5.881,1.058c1.391-1.042,1.6-4.192,1.886-5.706
	c0.608-3.234,0.357-11.266,4.161-12.834c1.464-0.605,2.954,1.154,4.832,1.845c2.562,0.945,2.929,0.529,4.819-1.438"/>
<path fill="none" stroke="#F2DAA7" stroke-width="4.6021" stroke-miterlimit="10" d="M1590.105,329.65
	c0.833,1.744,1.101,4.449,2.709,5.59c1.968,1.398,3.998,0.235,5.556-1.249c2.304-2.191,7.632-12.06,12.224-9.651
	c2.543,1.332,3.36,9.587,7.411,7.909c4.28-1.773,3.952-10.39,7.316-13.379c4.508-4.005,4.235,4.712,8.272,4.795"/>
<path fill="none" stroke="#E7C4B1" stroke-width="4.6021" stroke-miterlimit="10" d="M1890.851,516.264
	c0.435-3.154,0.398-7.653,0.702-11.23c0.109-1.282-0.118-3.452,0.888-4.422c2.661-2.563,7.694,2.496,9.283,4.372
	c1.346,1.59,2.171,5.271,4.543,5.48c3.088,0.271,3.491-4.333,4.13-6.396c2.342-7.577,5.773,3.035,9.676,1.616
	c3.976-1.449,1.004-9.003,6.494-8.985c2.339,0.007,3.387,2.324,5.012,3.228"/>
<path fill="none" stroke="#9FD4E4" stroke-width="4.6021" stroke-miterlimit="10" d="M1726.327,448.612
	c0.168,2.972-0.905,5.836-0.922,8.795c-0.007,1.205-0.14,5.384,0.968,6.128c1.252,0.844,5.438-0.902,6.851-1.116
	c3.339-0.505,6.617-1.445,9.918-2.082c2.122-0.409,5.869-1.05,6.936,0.67c1.525,2.457-0.154,5.379-0.792,7.625
	c-1.104,3.897,1.152,2.403,3.685,0.857c1.748-1.063,3.139-2.021,5.11-0.633c2.549,1.795,0.905,5.638,1.88,8.256
	c3.075,0.118,7.986-3.671,10.495-1.348c2.09,1.938,0.787,8.394,5.344,7.824"/>
<g>
	<path fill="#F2DAA7" d="M2220.521,338.796c1.155,1.663,2.625,1.452,3.265-0.469l7.595-22.785c0.641-1.921-0.464-3.184-2.453-2.806
		l-19.799,3.759c-1.989,0.378-2.672,2.048-1.518,3.711L2220.521,338.796z"/>
</g>
<g>
	<path fill="#E7C4B1" d="M2297.23,387.349c1.123,1.685,2.91,1.652,3.972-0.072l12.565-20.419c1.062-1.725,0.28-2.978-1.735-2.785
		l-24.835,2.378c-2.016,0.193-2.746,1.729-1.623,3.415L2297.23,387.349z"/>
</g>
<g>
	<path fill="#F2DAA7" d="M2174.177,483.078c1.049,1.732,2.56,1.627,3.357-0.234l8.391-19.583c0.798-1.861-0.201-3.253-2.22-3.094
		l-18.667,1.474c-2.019,0.159-2.812,1.707-1.763,3.439L2174.177,483.078z"/>
</g>
<g>
	<path fill="#E7C4B1" d="M2349.612,498.092c-1.903-0.691-2.216-2.353-0.696-3.689l21.506-18.92c1.52-1.337,3.445-0.922,4.277,0.925
		l15.109,33.495c0.832,1.847-0.043,2.79-1.946,2.099L2349.612,498.092z"/>
</g>
<g>
	<path fill="#E7C3AE" d="M2570.859,461.454c-2.008,0.263-3.08-1.079-2.384-2.98l10.127-27.648c0.696-1.901,2.138-2.048,3.202-0.325
		l14.95,24.192c1.064,1.723,0.293,3.346-1.715,3.608L2570.859,461.454z"/>
</g>
<g>
	<path fill="#E7C3AE" d="M2701.077,312.194c-0.979-1.772-0.127-3.321,1.895-3.442l15.579-0.931c2.021-0.121,2.75,1.155,1.62,2.835
		l-8.895,13.223c-1.13,1.68-2.855,1.604-3.835-0.168L2701.077,312.194z"/>
</g>
<g>
	<path fill="#9FD4E4" d="M2542.364,345.198c0.681,1.907,2.547,2.453,4.148,1.213l22.236-17.222c1.602-1.24,1.54-3.184-0.137-4.319
		l-41.126-27.864c-1.676-1.136-2.491-0.504-1.811,1.403L2542.364,345.198z"/>
</g>
<g>
	<path fill="#E7C3AE" d="M2675.742,434.494c-1.159-1.659-0.469-3.255,1.535-3.545l21.116-3.054c2.004-0.29,3.06,1.023,2.347,2.918
		l-8.357,22.197c-0.713,1.895-2.246,2.087-3.405,0.428L2675.742,434.494z"/>
</g>
<g>
	<path fill="#F2DAA7" d="M2738.879,390.374c-0.69,1.903,0.392,3.286,2.405,3.071l24.846-2.644c2.014-0.214,2.788-1.798,1.722-3.52
		l-15.626-25.221c-1.067-1.722-2.505-1.572-3.195,0.331L2738.879,390.374z"/>
</g>
<g>
	<path fill="#F2DAA7" d="M2746.017,496.314c-1.041-1.737-2.499-1.616-3.239,0.269l-10.996,27.965
		c-0.741,1.885,0.287,3.16,2.286,2.835l24.219-3.948c1.999-0.325,2.782-2.013,1.741-3.749L2746.017,496.314z"/>
</g>
<g>
	<path fill="#F2DAA7" d="M2798.78,323.379c-2.018,0.168-2.849,1.746-1.847,3.505l11.753,20.636c1.003,1.76,2.222,1.591,2.71-0.374
		l5.412-21.772c0.488-1.965-0.764-3.435-2.781-3.267L2798.78,323.379z"/>
</g>
<g>
	<path fill="#F2DAA7" d="M2595.251,272.842c-0.365,1.992,0.946,3.231,2.914,2.754l26.721-6.477c1.968-0.477,2.542-2.16,1.274-3.739
		l-21.743-27.106c-1.267-1.58-2.603-1.243-2.968,0.749L2595.251,272.842z"/>
</g>
<g>
	<path fill="#F2DAA7" d="M2468.109,278.796c1.056,1.728,2.535,1.604,3.287-0.277l10.953-27.382c0.752-1.88-0.28-3.245-2.294-3.033
		l-25.187,2.651c-2.014,0.212-2.797,1.799-1.741,3.527L2468.109,278.796z"/>
</g>
<g>
	<path fill="#9FD4E4" d="M2322.652,272.994c1.309,1.546,2.348,1.154,2.348-0.871v-16.567c0-2.025-1.504-3.059-3.381-2.298
		l-8.235,3.344c-1.877,0.761-2.35,2.648-1.042,4.194L2322.652,272.994z"/>
</g>
<g>
	<path fill="#9FD4E4" d="M2110.661,270.16c-1.847,0.832-2.717-0.015-1.936-1.883l7.18-17.161c0.781-1.868,3.065-3.195,5.075-2.948
		l26.576,3.259c2.01,0.247,2.145,1.129,0.298,1.961L2110.661,270.16z"/>
</g>
<g>
	<path fill="#F2DAA7" d="M2074.453,321.802c-1.027-1.195-9.417,23.379-9.417,23.379c-0.654,1.917-2.142,2.129-3.307,0.472
		l-13.562-19.296c-1.164-1.657-0.463-3.102,1.559-3.212L2074.453,321.802z"/>
</g>
<g>
	<path fill="#C6BFD7" d="M2183.693,372c2.025,0,2.68,1.083,1.454,2.695l-8.548,11.129c-1.225,1.612-3.121,1.477-4.212-0.229
		l-6.98-10.701c-1.091-1.706-0.327-2.895,1.697-2.895H2183.693z"/>
</g>
<g>
	<path fill="#C6BFD7" d="M2448.775,394.835c0.093-2.022,1.44-2.616,2.995-1.319l16.816,14.034c1.555,1.297,1.393,3.187-0.361,4.199
		l-17.578,10.15c-1.754,1.013-3.113,0.186-3.021-1.837L2448.775,394.835z"/>
</g>
<circle fill="#E7C4B1" cx="2089.837" cy="298.068" r="3.97"/>
<circle fill="#E7C4B1" cx="2116.128" cy="404.778" r="5.981"/>
<circle fill="#9FD4E4" cx="2231.18" cy="418.584" r="6.099"/>
<circle fill="#F2DAA7" cx="2260.634" cy="264.07" r="3.912"/>
<circle fill="#F2DAA7" cx="2369.241" cy="415.019" r="3.913"/>
<path fill="#E7C4B1" d="M2310.91,312.91c0,2.764-2.24,5.005-5.005,5.005c-2.767,0-5.002-2.241-5.002-5.005s2.235-5.005,5.002-5.005
	C2308.67,307.904,2310.91,310.146,2310.91,312.91z"/>
<circle fill="#E7C4B1" cx="2482.337" cy="316.304" r="4.141"/>
<path fill="#E7C4B1" d="M2533.994,397.3c0,2.414-1.954,4.372-4.371,4.372c-2.414,0-4.37-1.958-4.37-4.372s1.956-4.372,4.37-4.372
	C2532.04,392.928,2533.994,394.886,2533.994,397.3z"/>
<circle fill="#9FD4E4" cx="2602.049" cy="387.693" r="5.235"/>
<circle fill="#C6BFD7" cx="2642.547" cy="339.716" r="6.961"/>
<circle fill="#C6BFD7" cx="2427.203" cy="352.635" r="5.153"/>
<circle fill="#E7C3AE" cx="2689.604" cy="387.003" r="4.43"/>
<circle fill="#E7C3AE" cx="2767.206" cy="455.632" r="4.027"/>
<circle fill="#C6BFD7" cx="2521.916" cy="527.538" r="4.488"/>
<circle fill="#E7C4B1" cx="2436.145" cy="508.843" r="5.695"/>
<circle fill="#E7C4B1" cx="2199.714" cy="517.931" r="4.085"/>
<path fill="#E7C4B1" d="M2126.943,527.425c0,2.983-2.422,5.406-5.407,5.406c-2.986,0-5.409-2.423-5.409-5.406
	c0-2.989,2.423-5.409,5.409-5.409C2124.521,522.016,2126.943,524.436,2126.943,527.425z"/>
<path fill="none" stroke="#C6BFD7" stroke-width="4.6021" stroke-miterlimit="10" d="M2058.487,460.809
	c1.397,0.204,3.629-0.293,4.833,0.601c1.107,0.825,1.093,3.193,1.038,4.461c-0.161,3.511-1.814,6.856-1.986,10.354
	c-0.102,2.092,2.517,2.228,4.032,1.148c1.795-1.276,2.294-2.964,4.611-2.988c2.082-0.021,5.079-0.231,5.655,2.204
	c0.652,2.76-0.354,5.277-1.151,7.883c-0.628,2.058-1.146,4.119-1.271,6.261c-0.188,3.292,1.699,2.717,4.393,2.631
	c3.598-0.115,4.064,2.958,5.043,5.642"/>
<path fill="none" stroke="#E7C4B1" stroke-width="4.6021" stroke-miterlimit="10" d="M2238.428,489.227
	c1.641-0.005,2.724-0.109,3.659-1.611c0.993-1.594,1.498-3.411,1.519-5.287c0.023-2.176-0.377-4.521,0.924-6.466
	c1.034-1.551,2.518-2.434,4.344-1.825c1.009,0.337,1.422,1.042,2.228,1.614c0.841,0.6,1.738,0.815,2.515,1.526
	c1.188,1.088,1.818,2.385,2.876,3.534c2.813,3.059,4.526-3.53,4.601-5.552c0.07-1.83-0.604-8.241,2.072-8.6
	c2.047-0.273,3.926,3.208,5.984,3.481c2.633,0.348,4.833-4.396,5.513-6.356c0.424-1.211,0.907-2.406,1.3-3.619
	c0.379-1.172,0.616-2.68,1.47-3.639c0.928-1.043,2.263-0.912,3.565-0.911c2.009,0.001,3.881,0.062,5.729,0.944
	c1.302,0.626,2.47,1.923,3.937,2.161"/>
<path fill="none" stroke="#E7C4B1" stroke-width="4.6021" stroke-miterlimit="10" d="M2111.296,363.935
	c1.029-1.949,1.124-5.868,1.789-8.288c0.7-2.547,1.494-4.941,2.641-7.358c0.818-1.73,1.938-4.338,4.135-4.55
	c1.606-0.155,4.35,1.511,5.984,2.064c1.682,0.567,4.308,2.235,5.881,1.058c1.388-1.042,1.599-4.192,1.885-5.706
	c0.609-3.234,0.358-11.266,4.161-12.834c1.464-0.605,2.954,1.154,4.83,1.845c2.564,0.945,2.93,0.529,4.821-1.438"/>
<path fill="none" stroke="#F2DAA7" stroke-width="4.6021" stroke-miterlimit="10" d="M2336.796,329.65
	c0.836,1.744,1.104,4.449,2.71,5.59c1.966,1.398,4.002,0.235,5.558-1.249c2.304-2.191,7.629-12.06,12.224-9.651
	c2.541,1.332,3.358,9.587,7.41,7.909c4.279-1.773,3.95-10.39,7.316-13.379c4.507-4.005,4.235,4.712,8.273,4.795"/>
<path fill="none" stroke="#C6BFD7" stroke-width="4.6021" stroke-miterlimit="10" d="M2799.767,446.541
	c-3.343,3.167-5.358,8.443-6.5,12.887c-0.851,3.305-0.537,5.792,3.722,4.849c3.619-0.803,8.464-2.772,12.262-1.452
	c4.3,1.492,2.954,5.314,2.94,8.799"/>
<path fill="none" stroke="#E7C4B1" stroke-width="4.6021" stroke-miterlimit="10" d="M2637.542,516.264
	c0.436-3.154,0.399-7.653,0.703-11.23c0.109-1.282-0.119-3.452,0.889-4.422c2.661-2.563,7.696,2.496,9.282,4.372
	c1.346,1.59,2.168,5.271,4.544,5.48c3.086,0.271,3.489-4.333,4.128-6.396c2.343-7.577,5.774,3.035,9.677,1.616
	c3.976-1.449,1.004-9.003,6.494-8.985c2.339,0.007,3.388,2.324,5.013,3.228"/>
<path fill="none" stroke="#9FD4E4" stroke-width="4.6021" stroke-miterlimit="10" d="M2473.019,448.612
	c0.168,2.972-0.903,5.836-0.92,8.795c-0.009,1.205-0.14,5.384,0.966,6.128c1.252,0.844,5.439-0.902,6.853-1.116
	c3.338-0.505,6.616-1.445,9.918-2.082c2.119-0.409,5.869-1.05,6.935,0.67c1.525,2.457-0.156,5.379-0.791,7.625
	c-1.105,3.897,1.151,2.403,3.684,0.857c1.748-1.063,3.139-2.021,5.109-0.633c2.549,1.795,0.905,5.638,1.881,8.256
	c3.076,0.118,7.986-3.671,10.495-1.348c2.089,1.938,0.789,8.394,5.344,7.824"/>
<g>
	<path fill="#F2DAA7" d="M1473.828,46.801c1.155,1.663,2.625,1.452,3.265-0.469l7.596-22.785c0.64-1.921-0.464-3.184-2.453-2.806
		l-19.8,3.76c-1.989,0.378-2.672,2.048-1.517,3.711L1473.828,46.801z"/>
</g>
<g>
	<path fill="#E7C4B1" d="M1550.538,95.353c1.123,1.685,2.91,1.652,3.972-0.072l12.565-20.419c1.062-1.725,0.28-2.978-1.735-2.785
		l-24.836,2.378c-2.016,0.193-2.746,1.729-1.623,3.415L1550.538,95.353z"/>
</g>
<g>
	<path fill="#F2DAA7" d="M1427.484,191.082c1.049,1.732,2.56,1.626,3.357-0.235l8.392-19.582c0.798-1.861-0.201-3.253-2.22-3.094
		l-18.667,1.474c-2.019,0.16-2.812,1.707-1.763,3.439L1427.484,191.082z"/>
</g>
<g>
	<path fill="#E7C4B1" d="M1602.92,206.097c-1.903-0.692-2.216-2.353-0.695-3.69l21.505-18.92c1.521-1.337,3.446-0.921,4.278,0.924
		l15.106,33.497c0.833,1.846-0.043,2.79-1.946,2.098L1602.92,206.097z"/>
</g>
<g>
	<path fill="#E7C3AE" d="M1824.166,169.459c-2.008,0.262-3.08-1.08-2.384-2.981l10.128-27.647c0.696-1.901,2.138-2.048,3.202-0.325
		l14.95,24.191c1.064,1.723,0.293,3.346-1.715,3.608L1824.166,169.459z"/>
</g>
<g>
	<path fill="#E7C3AE" d="M1954.388,20.198c-0.979-1.772-0.126-3.321,1.895-3.442l15.577-0.93c2.021-0.121,2.75,1.155,1.62,2.835
		l-8.896,13.223c-1.13,1.68-2.855,1.604-3.835-0.168L1954.388,20.198z"/>
</g>
<g>
	<path fill="#9FD4E4" d="M1795.672,53.203c0.681,1.907,2.547,2.453,4.148,1.213l22.237-17.223c1.602-1.24,1.54-3.184-0.137-4.319
		l-41.127-27.864c-1.677-1.136-2.491-0.504-1.811,1.403L1795.672,53.203z"/>
</g>
<g>
	<path fill="#E7C3AE" d="M1929.05,142.499c-1.159-1.66-0.469-3.255,1.535-3.545l21.115-3.053c2.004-0.29,3.06,1.023,2.347,2.919
		l-8.356,22.195c-0.713,1.896-2.246,2.088-3.405,0.428L1929.05,142.499z"/>
</g>
<g>
	<path fill="#F2DAA7" d="M1992.187,98.379c-0.69,1.903,0.392,3.286,2.405,3.071l24.845-2.644c2.014-0.214,2.788-1.798,1.722-3.52
		l-15.625-25.221c-1.066-1.722-2.505-1.572-3.195,0.331L1992.187,98.379z"/>
</g>
<g>
	<path fill="#F2DAA7" d="M1999.325,204.319c-1.041-1.737-2.499-1.616-3.239,0.269l-10.996,27.967
		c-0.741,1.884,0.287,3.16,2.286,2.834l24.217-3.949c1.999-0.326,2.782-2.013,1.741-3.75L1999.325,204.319z"/>
</g>
<g>
	<path fill="#F2DAA7" d="M2052.088,31.384c-2.018,0.168-2.849,1.746-1.847,3.505l11.753,20.636c1.002,1.76,2.222,1.591,2.711-0.374
		l5.412-21.772c0.488-1.965-0.764-3.435-2.781-3.267L2052.088,31.384z"/>
</g>
<g>
	<path fill="#F2DAA7" d="M1848.56-19.153c-0.364,1.992,0.947,3.231,2.915,2.754l26.72-6.478c1.968-0.477,2.542-2.16,1.274-3.739
		l-21.745-27.107c-1.267-1.579-2.603-1.242-2.967,0.75L1848.56-19.153z"/>
</g>
<g>
	<path fill="#F2DAA7" d="M1721.416-13.199c1.056,1.728,2.535,1.604,3.287-0.277l10.954-27.381c0.752-1.88-0.28-3.245-2.294-3.033
		l-25.187,2.651c-2.014,0.212-2.797,1.799-1.741,3.527L1721.416-13.199z"/>
</g>
<g>
	<path fill="#9FD4E4" d="M1575.807-19.001c1.308,1.546,2.193,1.154,2.193-0.871v-16.567c0-2.025-1.351-3.059-3.228-2.298
		l-8.157,3.344c-1.877,0.761-2.389,2.648-1.081,4.194L1575.807-19.001z"/>
</g>
<g>
	<path fill="#9FD4E4" d="M1363.969-21.835c-1.846,0.832-2.717-0.015-1.936-1.883l7.18-17.161c0.781-1.868,3.065-3.195,5.075-2.948
		l26.576,3.258c2.01,0.247,2.144,1.129,0.298,1.961L1363.969-21.835z"/>
</g>
<g>
	<path fill="#F2DAA7" d="M1327.76,29.807c-1.026-1.195-9.418,23.379-9.418,23.379c-0.654,1.917-2.142,2.129-3.307,0.472
		l-13.56-19.297c-1.165-1.657-0.463-3.102,1.559-3.212L1327.76,29.807z"/>
</g>
<g>
	<path fill="#C6BFD7" d="M1437.002,80c2.025,0,2.679,1.085,1.454,2.697l-8.549,11.13c-1.225,1.612-3.12,1.478-4.212-0.228
		l-6.98-10.703c-1.092-1.706-0.328-2.896,1.697-2.896H1437.002z"/>
</g>
<g>
	<path fill="#C6BFD7" d="M1702.085,102.839c0.093-2.023,1.44-2.616,2.994-1.319l16.815,14.034c1.555,1.297,1.392,3.188-0.362,4.2
		l-17.577,10.15c-1.754,1.012-3.113,0.186-3.021-1.837L1702.085,102.839z"/>
</g>
<circle fill="#E7C4B1" cx="1343.146" cy="6.072" r="3.969"/>
<circle fill="#E7C4B1" cx="1369.436" cy="112.783" r="5.983"/>
<circle fill="#9FD4E4" cx="1484.487" cy="126.588" r="6.098"/>
<circle fill="#F2DAA7" cx="1513.94" cy="-27.925" r="3.912"/>
<circle fill="#F2DAA7" cx="1622.549" cy="123.023" r="3.912"/>
<path fill="#E7C4B1" d="M1564.217,20.915c0,2.764-2.239,5.005-5.003,5.005c-2.767,0-5.005-2.241-5.005-5.005
	s2.238-5.006,5.005-5.006C1561.978,15.909,1564.217,18.15,1564.217,20.915z"/>
<circle fill="#E7C4B1" cx="1735.645" cy="24.309" r="4.141"/>
<circle fill="#E7C4B1" cx="1782.931" cy="105.305" r="4.372"/>
<circle fill="#9FD4E4" cx="1855.357" cy="95.698" r="5.235"/>
<circle fill="#C6BFD7" cx="1895.855" cy="47.721" r="6.96"/>
<path fill="#C6BFD7" d="M1685.662,60.64c0,2.846-2.306,5.152-5.152,5.152c-2.843,0-5.152-2.307-5.152-5.152
	c0-2.847,2.31-5.152,5.152-5.152C1683.356,55.488,1685.662,57.793,1685.662,60.64z"/>
<circle fill="#E7C3AE" cx="1942.911" cy="95.007" r="4.429"/>
<circle fill="#E7C3AE" cx="2020.513" cy="163.636" r="4.027"/>
<path fill="#C6BFD7" d="M1779.711,235.542c0,2.478-2.01,4.488-4.488,4.488c-2.477,0-4.486-2.01-4.486-4.488
	c0-2.476,2.01-4.485,4.486-4.485C1777.701,231.057,1779.711,233.067,1779.711,235.542z"/>
<circle fill="#E7C4B1" cx="1689.452" cy="216.847" r="5.694"/>
<circle fill="#E7C4B1" cx="1453.021" cy="225.936" r="4.084"/>
<circle fill="#E7C4B1" cx="1374.844" cy="235.428" r="5.407"/>
<path fill="none" stroke="#C6BFD7" stroke-width="4.6021" stroke-miterlimit="10" d="M1311.794,168.814
	c1.399,0.205,3.631-0.294,4.834,0.6c1.106,0.826,1.093,3.193,1.037,4.462c-0.158,3.511-1.811,6.855-1.983,10.355
	c-0.104,2.092,2.516,2.227,4.033,1.147c1.791-1.277,2.291-2.963,4.609-2.988c2.08-0.021,5.079-0.231,5.654,2.205
	c0.651,2.759-0.354,5.278-1.149,7.883c-0.631,2.058-1.15,4.119-1.271,6.261c-0.19,3.291,1.697,2.716,4.391,2.63
	c3.598-0.115,4.063,2.958,5.043,5.644"/>
<path fill="none" stroke="#E7C4B1" stroke-width="4.6021" stroke-miterlimit="10" d="M1491.735,197.231
	c1.641-0.005,2.724-0.109,3.658-1.61c0.993-1.595,1.499-3.412,1.519-5.287c0.024-2.177-0.375-4.522,0.926-6.467
	c1.034-1.55,2.516-2.434,4.343-1.825c1.009,0.337,1.422,1.042,2.228,1.614c0.841,0.6,1.737,0.815,2.515,1.527
	c1.187,1.087,1.818,2.384,2.876,3.534c2.812,3.058,4.526-3.53,4.603-5.553c0.067-1.829-0.606-8.24,2.07-8.598
	c2.048-0.273,3.926,3.208,5.983,3.48c2.635,0.348,4.833-4.396,5.515-6.357c0.423-1.209,0.906-2.405,1.298-3.619
	c0.379-1.171,0.618-2.68,1.471-3.639c0.929-1.042,2.264-0.913,3.565-0.911c2.007,0.002,3.88,0.061,5.728,0.945
	c1.305,0.626,2.473,1.922,3.938,2.161"/>
<path fill="none" stroke="#E7C4B1" stroke-width="4.6021" stroke-miterlimit="10" d="M1364.603,71.94
	c1.032-1.95,1.126-5.868,1.792-8.289c0.698-2.547,1.493-4.941,2.637-7.358c0.821-1.729,1.94-4.339,4.137-4.549
	c1.607-0.155,4.349,1.511,5.983,2.064c1.683,0.568,4.31,2.235,5.881,1.058c1.391-1.042,1.6-4.192,1.886-5.707
	c0.608-3.234,0.357-11.265,4.161-12.833c1.464-0.605,2.954,1.154,4.832,1.845c2.562,0.944,2.929,0.529,4.819-1.438"/>
<path fill="none" stroke="#F2DAA7" stroke-width="4.6021" stroke-miterlimit="10" d="M1590.105,37.654
	c0.833,1.745,1.101,4.45,2.709,5.591c1.968,1.398,3.998,0.235,5.556-1.249c2.304-2.191,7.632-12.059,12.224-9.651
	c2.543,1.333,3.36,9.588,7.411,7.909c4.28-1.773,3.952-10.389,7.316-13.379c4.508-4.004,4.235,4.712,8.272,4.796"/>
<path fill="none" stroke="#E7C4B1" stroke-width="4.6021" stroke-miterlimit="10" d="M1890.851,224.268
	c0.435-3.153,0.398-7.651,0.702-11.229c0.109-1.281-0.118-3.453,0.888-4.422c2.661-2.564,7.694,2.496,9.283,4.372
	c1.346,1.591,2.171,5.272,4.543,5.481c3.088,0.271,3.491-4.333,4.13-6.396c2.342-7.578,5.773,3.035,9.676,1.616
	c3.976-1.448,1.004-9.002,6.494-8.985c2.339,0.007,3.387,2.325,5.012,3.227"/>
<path fill="none" stroke="#9FD4E4" stroke-width="4.6021" stroke-miterlimit="10" d="M1726.327,156.618
	c0.168,2.971-0.905,5.835-0.922,8.794c-0.007,1.205-0.14,5.383,0.968,6.128c1.252,0.843,5.438-0.902,6.851-1.117
	c3.339-0.505,6.617-1.446,9.918-2.082c2.122-0.41,5.869-1.05,6.936,0.669c1.525,2.458-0.154,5.38-0.792,7.625
	c-1.104,3.898,1.152,2.403,3.685,0.858c1.748-1.063,3.139-2.021,5.11-0.632c2.549,1.794,0.905,5.638,1.88,8.254
	c3.075,0.118,7.986-3.669,10.495-1.347c2.09,1.937,0.787,8.394,5.344,7.825"/>
<g>
	<path fill="#F2DAA7" d="M2220.521,46.801c1.155,1.663,2.625,1.452,3.265-0.469l7.595-22.785c0.641-1.921-0.464-3.184-2.453-2.806
		l-19.799,3.76c-1.989,0.378-2.672,2.048-1.518,3.711L2220.521,46.801z"/>
</g>
<g>
	<path fill="#E7C4B1" d="M2297.23,95.353c1.123,1.685,2.91,1.652,3.972-0.072l12.565-20.419c1.062-1.725,0.28-2.978-1.735-2.785
		l-24.835,2.378c-2.016,0.193-2.746,1.729-1.623,3.415L2297.23,95.353z"/>
</g>
<g>
	<path fill="#F2DAA7" d="M2174.177,191.082c1.049,1.732,2.56,1.626,3.357-0.235l8.391-19.581c0.798-1.861-0.201-3.254-2.22-3.094
		l-18.667,1.474c-2.019,0.16-2.812,1.707-1.763,3.439L2174.177,191.082z"/>
</g>
<g>
	<path fill="#E7C4B1" d="M2349.612,206.097c-1.903-0.692-2.216-2.353-0.696-3.69l21.506-18.92c1.52-1.337,3.445-0.921,4.277,0.924
		l15.109,33.497c0.832,1.846-0.043,2.79-1.946,2.098L2349.612,206.097z"/>
</g>
<g>
	<path fill="#E7C3AE" d="M2570.859,169.459c-2.008,0.262-3.08-1.08-2.384-2.981l10.127-27.647c0.696-1.901,2.138-2.048,3.202-0.325
		l14.95,24.191c1.064,1.723,0.293,3.346-1.715,3.608L2570.859,169.459z"/>
</g>
<g>
	<path fill="#E7C3AE" d="M2701.077,20.198c-0.979-1.772-0.126-3.321,1.895-3.442l15.579-0.93c2.021-0.121,2.75,1.155,1.62,2.835
		l-8.895,13.223c-1.13,1.68-2.855,1.604-3.835-0.168L2701.077,20.198z"/>
</g>
<g>
	<path fill="#9FD4E4" d="M2542.365,53.203c0.68,1.907,2.546,2.453,4.147,1.213l22.236-17.223c1.602-1.24,1.54-3.184-0.137-4.319
		l-41.126-27.864c-1.676-1.136-2.491-0.504-1.811,1.403L2542.365,53.203z"/>
</g>
<g>
	<path fill="#E7C3AE" d="M2675.742,142.499c-1.159-1.66-0.469-3.255,1.535-3.545l21.116-3.053c2.004-0.29,3.06,1.023,2.347,2.918
		l-8.357,22.196c-0.713,1.895-2.246,2.087-3.405,0.427L2675.742,142.499z"/>
</g>
<g>
	<path fill="#F2DAA7" d="M2738.879,98.379c-0.69,1.903,0.392,3.286,2.405,3.071l24.846-2.644c2.014-0.214,2.788-1.798,1.722-3.519
		l-15.626-25.222c-1.067-1.721-2.505-1.572-3.195,0.332L2738.879,98.379z"/>
</g>
<g>
	<path fill="#F2DAA7" d="M2746.017,204.319c-1.041-1.737-2.499-1.616-3.239,0.269l-10.996,27.967
		c-0.741,1.884,0.287,3.16,2.286,2.834l24.219-3.949c1.999-0.326,2.782-2.013,1.741-3.75L2746.017,204.319z"/>
</g>
<g>
	<path fill="#F2DAA7" d="M2798.78,31.384c-2.018,0.168-2.849,1.746-1.847,3.505l11.753,20.636c1.002,1.76,2.222,1.591,2.71-0.374
		l5.412-21.772c0.488-1.965-0.764-3.435-2.781-3.267L2798.78,31.384z"/>
</g>
<g>
	<path fill="#F2DAA7" d="M2595.251-19.153c-0.365,1.992,0.946,3.231,2.914,2.754l26.721-6.478c1.968-0.477,2.542-2.16,1.274-3.739
		l-21.743-27.106c-1.267-1.58-2.603-1.243-2.968,0.749L2595.251-19.153z"/>
</g>
<g>
	<path fill="#F2DAA7" d="M2468.109-13.199c1.056,1.728,2.535,1.604,3.287-0.277l10.953-27.381c0.752-1.88-0.28-3.245-2.294-3.033
		l-25.187,2.651c-2.014,0.212-2.797,1.799-1.741,3.527L2468.109-13.199z"/>
</g>
<g>
	<path fill="#9FD4E4" d="M2322.652-19.001c1.309,1.546,2.348,1.154,2.348-0.871v-16.567c0-2.025-1.504-3.059-3.381-2.298
		l-8.235,3.344c-1.877,0.761-2.35,2.648-1.042,4.194L2322.652-19.001z"/>
</g>
<g>
	<path fill="#9FD4E4" d="M2110.661-21.835c-1.847,0.832-2.717-0.015-1.936-1.883l7.18-17.161c0.781-1.868,3.065-3.195,5.075-2.948
		l26.576,3.258c2.01,0.247,2.145,1.129,0.298,1.961L2110.661-21.835z"/>
</g>
<g>
	<path fill="#F2DAA7" d="M2074.453,29.807c-1.027-1.195-9.417,23.379-9.417,23.379c-0.654,1.917-2.142,2.129-3.307,0.472
		l-13.562-19.297c-1.164-1.657-0.463-3.102,1.559-3.212L2074.453,29.807z"/>
</g>
<g>
	<path fill="#C6BFD7" d="M2183.693,80c2.025,0,2.68,1.085,1.454,2.697l-8.548,11.13c-1.225,1.612-3.121,1.478-4.212-0.228
		l-6.98-10.703c-1.091-1.706-0.327-2.896,1.697-2.896H2183.693z"/>
</g>
<g>
	<path fill="#C6BFD7" d="M2448.775,102.839c0.093-2.023,1.44-2.616,2.995-1.319l16.816,14.034c1.555,1.297,1.393,3.188-0.361,4.2
		l-17.578,10.15c-1.754,1.012-3.113,0.186-3.021-1.837L2448.775,102.839z"/>
</g>
<circle fill="#E7C4B1" cx="2089.837" cy="6.072" r="3.97"/>
<circle fill="#E7C4B1" cx="2116.128" cy="112.783" r="5.981"/>
<circle fill="#9FD4E4" cx="2231.18" cy="126.588" r="6.099"/>
<circle fill="#F2DAA7" cx="2260.634" cy="-27.925" r="3.912"/>
<circle fill="#F2DAA7" cx="2369.241" cy="123.023" r="3.913"/>
<path fill="#E7C4B1" d="M2310.91,20.915c0,2.764-2.24,5.005-5.005,5.005c-2.767,0-5.002-2.241-5.002-5.005s2.235-5.006,5.002-5.006
	C2308.67,15.909,2310.91,18.15,2310.91,20.915z"/>
<circle fill="#E7C4B1" cx="2482.337" cy="24.309" r="4.141"/>
<path fill="#E7C4B1" d="M2533.994,105.305c0,2.414-1.954,4.372-4.371,4.372c-2.414,0-4.37-1.958-4.37-4.372
	c0-2.414,1.956-4.373,4.37-4.373C2532.04,100.932,2533.994,102.891,2533.994,105.305z"/>
<circle fill="#9FD4E4" cx="2602.049" cy="95.698" r="5.235"/>
<circle fill="#C6BFD7" cx="2642.547" cy="47.721" r="6.961"/>
<circle fill="#C6BFD7" cx="2427.203" cy="60.64" r="5.153"/>
<circle fill="#E7C3AE" cx="2689.604" cy="95.007" r="4.43"/>
<circle fill="#E7C3AE" cx="2767.206" cy="163.636" r="4.027"/>
<path fill="#C6BFD7" d="M2526.404,235.542c0,2.478-2.011,4.488-4.488,4.488c-2.479,0-4.488-2.01-4.488-4.488
	c0-2.476,2.01-4.485,4.488-4.485C2524.394,231.057,2526.404,233.067,2526.404,235.542z"/>
<circle fill="#E7C4B1" cx="2436.145" cy="216.847" r="5.695"/>
<circle fill="#E7C4B1" cx="2199.714" cy="225.936" r="4.085"/>
<path fill="none" stroke="#C6BFD7" stroke-width="4.6021" stroke-miterlimit="10" d="M2058.487,168.814
	c1.397,0.205,3.629-0.294,4.833,0.6c1.107,0.826,1.093,3.193,1.038,4.462c-0.161,3.511-1.814,6.855-1.986,10.355
	c-0.102,2.092,2.517,2.227,4.032,1.147c1.795-1.277,2.294-2.963,4.611-2.988c2.082-0.021,5.079-0.231,5.655,2.205
	c0.652,2.759-0.354,5.278-1.151,7.883c-0.628,2.058-1.146,4.119-1.271,6.261c-0.188,3.291,1.699,2.716,4.393,2.63
	c3.598-0.115,4.064,2.958,5.043,5.644"/>
<path fill="none" stroke="#E7C4B1" stroke-width="4.6021" stroke-miterlimit="10" d="M2238.428,197.231
	c1.641-0.005,2.724-0.109,3.659-1.61c0.993-1.595,1.498-3.412,1.519-5.287c0.023-2.177-0.377-4.522,0.924-6.467
	c1.034-1.55,2.518-2.434,4.344-1.825c1.009,0.337,1.422,1.042,2.228,1.614c0.841,0.6,1.738,0.815,2.515,1.527
	c1.188,1.087,1.818,2.384,2.876,3.534c2.813,3.058,4.526-3.53,4.601-5.553c0.07-1.829-0.604-8.24,2.072-8.598
	c2.047-0.273,3.926,3.208,5.984,3.48c2.633,0.348,4.833-4.396,5.513-6.357c0.424-1.209,0.907-2.405,1.3-3.619
	c0.379-1.171,0.616-2.68,1.47-3.639c0.928-1.042,2.263-0.913,3.565-0.911c2.009,0.002,3.881,0.061,5.729,0.945
	c1.302,0.626,2.47,1.922,3.937,2.161"/>
<path fill="none" stroke="#E7C4B1" stroke-width="4.6021" stroke-miterlimit="10" d="M2111.296,71.94
	c1.029-1.95,1.124-5.868,1.789-8.289c0.7-2.547,1.494-4.941,2.641-7.358c0.818-1.729,1.938-4.339,4.135-4.549
	c1.606-0.155,4.35,1.511,5.984,2.064c1.682,0.568,4.308,2.235,5.881,1.058c1.388-1.042,1.599-4.192,1.885-5.707
	c0.609-3.234,0.358-11.265,4.161-12.833c1.464-0.605,2.954,1.154,4.83,1.845c2.564,0.944,2.93,0.529,4.821-1.438"/>
<path fill="none" stroke="#F2DAA7" stroke-width="4.6021" stroke-miterlimit="10" d="M2336.796,37.654
	c0.836,1.745,1.104,4.45,2.71,5.591c1.966,1.398,4.002,0.235,5.558-1.249c2.304-2.191,7.629-12.059,12.224-9.651
	c2.541,1.333,3.358,9.588,7.41,7.909c4.279-1.773,3.95-10.389,7.316-13.379c4.507-4.004,4.235,4.712,8.273,4.796"/>
<path fill="none" stroke="#C6BFD7" stroke-width="4.6021" stroke-miterlimit="10" d="M2799.767,154.547
	c-3.343,3.166-5.358,8.443-6.5,12.886c-0.851,3.305-0.537,5.792,3.722,4.849c3.619-0.802,8.464-2.772,12.262-1.452
	c4.3,1.493,2.954,5.314,2.94,8.799"/>
<path fill="none" stroke="#E7C4B1" stroke-width="4.6021" stroke-miterlimit="10" d="M2637.542,224.268
	c0.436-3.153,0.399-7.651,0.703-11.229c0.109-1.281-0.119-3.453,0.889-4.422c2.661-2.564,7.696,2.496,9.282,4.372
	c1.346,1.591,2.168,5.272,4.544,5.481c3.086,0.271,3.489-4.333,4.128-6.396c2.343-7.578,5.774,3.035,9.677,1.616
	c3.976-1.448,1.004-9.002,6.494-8.985c2.339,0.007,3.388,2.325,5.013,3.227"/>
<path fill="none" stroke="#9FD4E4" stroke-width="4.6021" stroke-miterlimit="10" d="M2473.019,156.618
	c0.168,2.971-0.903,5.835-0.92,8.794c-0.009,1.205-0.14,5.383,0.966,6.128c1.252,0.843,5.439-0.902,6.853-1.117
	c3.338-0.505,6.616-1.446,9.918-2.082c2.119-0.41,5.869-1.05,6.935,0.669c1.525,2.458-0.156,5.38-0.791,7.625
	c-1.105,3.898,1.151,2.403,3.684,0.858c1.748-1.063,3.139-2.021,5.109-0.632c2.549,1.794,0.905,5.638,1.881,8.254
	c3.076,0.118,7.986-3.669,10.495-1.347c2.089,1.937,0.789,8.394,5.344,7.825"/>
</svg>
